<?xml version="1.0" encoding="UTF-8" standalone="no"?>
<!-- Created with Inkscape (http://www.inkscape.org/) -->

<svg
   xmlns:dc="http://purl.org/dc/elements/1.1/"
   xmlns:cc="http://creativecommons.org/ns#"
   xmlns:rdf="http://www.w3.org/1999/02/22-rdf-syntax-ns#"
   xmlns:svg="http://www.w3.org/2000/svg"
   xmlns="http://www.w3.org/2000/svg"
   xmlns:sodipodi="http://sodipodi.sourceforge.net/DTD/sodipodi-0.dtd"
   xmlns:inkscape="http://www.inkscape.org/namespaces/inkscape"
   id="svg8563"
   version="1.1"
   inkscape:version="0.91 r13725"
   xml:space="preserve"
   width="215.9mm"
   height="279.4mm"
   viewBox="0 0 765 990"
   sodipodi:docname="basic-inline-turbidimeter_main_board_v2.1.svg"><metadata
     id="metadata8569"><rdf:RDF><cc:Work
         rdf:about=""><dc:format>image/svg+xml</dc:format><dc:type
           rdf:resource="http://purl.org/dc/dcmitype/StillImage" /><dc:title></dc:title></cc:Work></rdf:RDF></metadata><defs
     id="defs8567" /><sodipodi:namedview
     pagecolor="#ffffff"
     bordercolor="#666666"
     borderopacity="1"
     objecttolerance="10"
     gridtolerance="10"
     guidetolerance="10"
     inkscape:pageopacity="0"
     inkscape:pageshadow="2"
     inkscape:window-width="1920"
     inkscape:window-height="1017"
     id="namedview8565"
     showgrid="false"
     units="mm"
     inkscape:document-units="mm"
     inkscape:zoom="0.95354"
     inkscape:cx="460.09"
     inkscape:cy="752.38"
     inkscape:window-x="-8"
     inkscape:window-y="-8"
     inkscape:window-maximized="1"
     inkscape:current-layer="g8571" /><g
     id="g8571"
     inkscape:groupmode="layer"
     inkscape:label="basic-inline-turbidimeter_main_board_v2.1"
     transform="matrix(1.25,0,0,-1.25,0,990)"><g
       id="g11251"
       transform="translate(-221.49,317.14)"><path
         inkscape:connector-curvature="0"
         id="path8579"
         style="fill:#000000;fill-opacity:1;fill-rule:evenodd;stroke:none"
         d="M 347.28,423.12 351.12,423.12 351.12,424.32 347.28,424.32 347.28,423.12 Z" /><path
         inkscape:connector-curvature="0"
         id="path8581"
         style="fill:#000000;fill-opacity:1;fill-rule:evenodd;stroke:none"
         d="M 347.28,421.2 351.12,421.2 351.12,422.4 347.28,422.4 347.28,421.2 Z" /><path
         inkscape:connector-curvature="0"
         id="path8583"
         style="fill:#000000;fill-opacity:1;fill-rule:evenodd;stroke:none"
         d="M 347.28,419.52 351.12,419.52 351.12,420.48 347.28,420.48 347.28,419.52 Z" /><path
         inkscape:connector-curvature="0"
         id="path8585"
         style="fill:#000000;fill-opacity:1;fill-rule:evenodd;stroke:none"
         d="M 347.28,417.6 351.12,417.6 351.12,418.8 347.28,418.8 347.28,417.6 Z" /><path
         inkscape:connector-curvature="0"
         id="path8587"
         style="fill:#000000;fill-opacity:1;fill-rule:evenodd;stroke:none"
         d="M 334.8,417.6 338.64,417.6 338.64,418.8 334.8,418.8 334.8,417.6 Z" /><path
         inkscape:connector-curvature="0"
         id="path8589"
         style="fill:#000000;fill-opacity:1;fill-rule:evenodd;stroke:none"
         d="M 334.8,419.52 338.64,419.52 338.64,420.48 334.8,420.48 334.8,419.52 Z" /><path
         inkscape:connector-curvature="0"
         id="path8591"
         style="fill:#000000;fill-opacity:1;fill-rule:evenodd;stroke:none"
         d="M 334.8,421.2 338.64,421.2 338.64,422.4 334.8,422.4 334.8,421.2 Z" /><path
         inkscape:connector-curvature="0"
         id="path8593"
         style="fill:#000000;fill-opacity:1;fill-rule:evenodd;stroke:none"
         d="M 334.8,423.12 338.64,423.12 338.64,424.32 334.8,424.32 334.8,423.12 Z" /><path
         inkscape:connector-curvature="0"
         id="path8595"
         style="fill:#000000;fill-opacity:1;fill-rule:evenodd;stroke:none"
         d="M 262.8,422.88 266.64,422.88 266.64,423.6 262.8,423.6 262.8,422.88 Z" /><path
         inkscape:connector-curvature="0"
         id="path8597"
         style="fill:#000000;fill-opacity:1;fill-rule:evenodd;stroke:none"
         d="M 262.8,424.32 266.64,424.32 266.64,424.8 262.8,424.8 262.8,424.32 Z" /><path
         inkscape:connector-curvature="0"
         id="path8599"
         style="fill:#000000;fill-opacity:1;fill-rule:evenodd;stroke:none"
         d="M 262.8,425.76 266.64,425.76 266.64,426.24 262.8,426.24 262.8,425.76 Z" /><path
         inkscape:connector-curvature="0"
         id="path8601"
         style="fill:#000000;fill-opacity:1;fill-rule:evenodd;stroke:none"
         d="M 262.8,427.2 266.64,427.2 266.64,427.68 262.8,427.68 262.8,427.2 Z" /><path
         inkscape:connector-curvature="0"
         id="path8603"
         style="fill:#000000;fill-opacity:1;fill-rule:evenodd;stroke:none"
         d="M 262.8,428.4 266.64,428.4 266.64,429.12 262.8,429.12 262.8,428.4 Z" /><path
         inkscape:connector-curvature="0"
         id="path8605"
         style="fill:#000000;fill-opacity:1;fill-rule:evenodd;stroke:none"
         d="M 275.28,428.4 279.12,428.4 279.12,429.12 275.28,429.12 275.28,428.4 Z" /><path
         inkscape:connector-curvature="0"
         id="path8607"
         style="fill:#000000;fill-opacity:1;fill-rule:evenodd;stroke:none"
         d="M 275.28,427.2 279.12,427.2 279.12,427.68 275.28,427.68 275.28,427.2 Z" /><path
         inkscape:connector-curvature="0"
         id="path8609"
         style="fill:#000000;fill-opacity:1;fill-rule:evenodd;stroke:none"
         d="M 275.28,425.76 279.12,425.76 279.12,426.24 275.28,426.24 275.28,425.76 Z" /><path
         inkscape:connector-curvature="0"
         id="path8611"
         style="fill:#000000;fill-opacity:1;fill-rule:evenodd;stroke:none"
         d="M 275.28,424.32 279.12,424.32 279.12,424.8 275.28,424.8 275.28,424.32 Z" /><path
         inkscape:connector-curvature="0"
         id="path8613"
         style="fill:#000000;fill-opacity:1;fill-rule:evenodd;stroke:none"
         d="M 275.28,422.88 279.12,422.88 279.12,423.6 275.28,423.6 275.28,422.88 Z" /><path
         inkscape:connector-curvature="0"
         id="path8615"
         style="fill:#000000;fill-opacity:1;fill-rule:evenodd;stroke:none"
         d="M 309.84,350.64 316.08,350.64 316.08,352.32 309.84,352.32 309.84,350.64 Z" /><path
         inkscape:connector-curvature="0"
         id="path8617"
         style="fill:#000000;fill-opacity:1;fill-rule:evenodd;stroke:none"
         d="M 309.84,347.04 316.08,347.04 316.08,348.72 309.84,348.72 309.84,347.04 Z" /><path
         inkscape:connector-curvature="0"
         id="path8619"
         style="fill:#000000;fill-opacity:1;fill-rule:evenodd;stroke:none"
         d="M 309.84,343.44 316.08,343.44 316.08,345.12 309.84,345.12 309.84,343.44 Z" /><path
         inkscape:connector-curvature="0"
         id="path8621"
         style="fill:#000000;fill-opacity:1;fill-rule:evenodd;stroke:none"
         d="M 309.84,339.84 316.08,339.84 316.08,341.52 309.84,341.52 309.84,339.84 Z" /><path
         inkscape:connector-curvature="0"
         id="path8623"
         style="fill:#000000;fill-opacity:1;fill-rule:evenodd;stroke:none"
         d="M 295.2,339.84 301.2,339.84 301.2,341.52 295.2,341.52 295.2,339.84 Z" /><path
         inkscape:connector-curvature="0"
         id="path8625"
         style="fill:#000000;fill-opacity:1;fill-rule:evenodd;stroke:none"
         d="M 295.2,343.44 301.2,343.44 301.2,345.12 295.2,345.12 295.2,343.44 Z" /><path
         inkscape:connector-curvature="0"
         id="path8627"
         style="fill:#000000;fill-opacity:1;fill-rule:evenodd;stroke:none"
         d="M 295.2,347.04 301.2,347.04 301.2,348.72 295.2,348.72 295.2,347.04 Z" /><path
         inkscape:connector-curvature="0"
         id="path8629"
         style="fill:#000000;fill-opacity:1;fill-rule:evenodd;stroke:none"
         d="M 295.2,350.64 301.2,350.64 301.2,352.32 295.2,352.32 295.2,350.64 Z" /><path
         inkscape:connector-curvature="0"
         id="path8631"
         style="fill:#000000;fill-opacity:1;fill-rule:evenodd;stroke:none"
         d="M 289.92,435.6 291.6,435.6 291.6,441.84 289.92,441.84 289.92,435.6 Z" /><path
         inkscape:connector-curvature="0"
         id="path8633"
         style="fill:#000000;fill-opacity:1;fill-rule:evenodd;stroke:none"
         d="M 293.52,435.6 295.2,435.6 295.2,441.84 293.52,441.84 293.52,435.6 Z" /><path
         inkscape:connector-curvature="0"
         id="path8635"
         style="fill:#000000;fill-opacity:1;fill-rule:evenodd;stroke:none"
         d="M 297.12,435.6 298.8,435.6 298.8,441.84 297.12,441.84 297.12,435.6 Z" /><path
         inkscape:connector-curvature="0"
         id="path8637"
         style="fill:#000000;fill-opacity:1;fill-rule:evenodd;stroke:none"
         d="M 300.72,435.6 302.4,435.6 302.4,441.84 300.72,441.84 300.72,435.6 Z" /><path
         inkscape:connector-curvature="0"
         id="path8639"
         style="fill:#000000;fill-opacity:1;fill-rule:evenodd;stroke:none"
         d="M 312.96,435.6 314.64,435.6 314.64,441.84 312.96,441.84 312.96,435.6 Z" /><path
         inkscape:connector-curvature="0"
         id="path8641"
         style="fill:#000000;fill-opacity:1;fill-rule:evenodd;stroke:none"
         d="M 316.56,435.6 318.24,435.6 318.24,441.84 316.56,441.84 316.56,435.6 Z" /><path
         inkscape:connector-curvature="0"
         id="path8643"
         style="fill:#000000;fill-opacity:1;fill-rule:evenodd;stroke:none"
         d="M 320.16,435.6 321.84,435.6 321.84,441.84 320.16,441.84 320.16,435.6 Z" /><path
         inkscape:connector-curvature="0"
         id="path8645"
         style="fill:#000000;fill-opacity:1;fill-rule:evenodd;stroke:none"
         d="M 323.76,435.6 325.44,435.6 325.44,441.84 323.76,441.84 323.76,435.6 Z" /><path
         inkscape:connector-curvature="0"
         id="path8647"
         style="fill:#000000;fill-opacity:1;fill-rule:evenodd;stroke:none"
         d="M 323.76,450.48 325.44,450.48 325.44,456.72 323.76,456.72 323.76,450.48 Z" /><path
         inkscape:connector-curvature="0"
         id="path8649"
         style="fill:#000000;fill-opacity:1;fill-rule:evenodd;stroke:none"
         d="M 320.16,450.48 321.84,450.48 321.84,456.72 320.16,456.72 320.16,450.48 Z" /><path
         inkscape:connector-curvature="0"
         id="path8651"
         style="fill:#000000;fill-opacity:1;fill-rule:evenodd;stroke:none"
         d="M 316.56,450.48 318.24,450.48 318.24,456.72 316.56,456.72 316.56,450.48 Z" /><path
         inkscape:connector-curvature="0"
         id="path8653"
         style="fill:#000000;fill-opacity:1;fill-rule:evenodd;stroke:none"
         d="M 312.96,450.48 314.64,450.48 314.64,456.72 312.96,456.72 312.96,450.48 Z" /><path
         inkscape:connector-curvature="0"
         id="path8655"
         style="fill:#000000;fill-opacity:1;fill-rule:evenodd;stroke:none"
         d="M 300.72,450.48 302.4,450.48 302.4,456.72 300.72,456.72 300.72,450.48 Z" /><path
         inkscape:connector-curvature="0"
         id="path8657"
         style="fill:#000000;fill-opacity:1;fill-rule:evenodd;stroke:none"
         d="M 297.12,450.48 298.8,450.48 298.8,456.72 297.12,456.72 297.12,450.48 Z" /><path
         inkscape:connector-curvature="0"
         id="path8659"
         style="fill:#000000;fill-opacity:1;fill-rule:evenodd;stroke:none"
         d="M 293.52,450.48 295.2,450.48 295.2,456.72 293.52,456.72 293.52,450.48 Z" /><path
         inkscape:connector-curvature="0"
         id="path8661"
         style="fill:#000000;fill-opacity:1;fill-rule:evenodd;stroke:none"
         d="M 289.92,450.48 291.6,450.48 291.6,456.72 289.92,456.72 289.92,450.48 Z" /><path
         inkscape:connector-curvature="0"
         id="path10535"
         style="fill:#000000;fill-opacity:1;fill-rule:evenodd;stroke:none"
         d="M 290.64,338.64 293.04,338.64 293.04,341.52 290.64,341.52 290.64,338.64 Z" /><path
         inkscape:connector-curvature="0"
         id="path10537"
         style="fill:#000000;fill-opacity:1;fill-rule:evenodd;stroke:none"
         d="M 285.6,338.64 288,338.64 288,341.52 285.6,341.52 285.6,338.64 Z" /><path
         inkscape:connector-curvature="0"
         id="path10539"
         style="fill:#000000;fill-opacity:1;fill-rule:evenodd;stroke:none"
         d="M 285.6,343.44 288,343.44 288,346.32 285.6,346.32 285.6,343.44 Z" /><path
         inkscape:connector-curvature="0"
         id="path10541"
         style="fill:#000000;fill-opacity:1;fill-rule:evenodd;stroke:none"
         d="M 290.64,343.44 293.04,343.44 293.04,346.32 290.64,346.32 290.64,343.44 Z" /><path
         inkscape:connector-curvature="0"
         id="path10543"
         style="fill:#000000;fill-opacity:1;fill-rule:evenodd;stroke:none"
         d="M 290.64,348 293.04,348 293.04,350.88 290.64,350.88 290.64,348 Z" /><path
         inkscape:connector-curvature="0"
         id="path10545"
         style="fill:#000000;fill-opacity:1;fill-rule:evenodd;stroke:none"
         d="M 285.6,348 288,348 288,350.88 285.6,350.88 285.6,348 Z" /><path
         inkscape:connector-curvature="0"
         id="path10547"
         style="fill:#000000;fill-opacity:1;fill-rule:evenodd;stroke:none"
         d="M 285.6,352.8 288,352.8 288,355.68 285.6,355.68 285.6,352.8 Z" /><path
         inkscape:connector-curvature="0"
         id="path10549"
         style="fill:#000000;fill-opacity:1;fill-rule:evenodd;stroke:none"
         d="M 290.64,352.8 293.04,352.8 293.04,355.68 290.64,355.68 290.64,352.8 Z" /><path
         inkscape:connector-curvature="0"
         id="path10551"
         style="fill:#000000;fill-opacity:1;fill-rule:evenodd;stroke:none"
         d="M 329.76,379.68 332.4,379.68 332.4,382.56 329.76,382.56 329.76,379.68 Z" /><path
         inkscape:connector-curvature="0"
         id="path10553"
         style="fill:#000000;fill-opacity:1;fill-rule:evenodd;stroke:none"
         d="M 329.76,384.48 332.4,384.48 332.4,387.36 329.76,387.36 329.76,384.48 Z" /><path
         inkscape:connector-curvature="0"
         id="path10555"
         style="fill:#000000;fill-opacity:1;fill-rule:evenodd;stroke:none"
         d="M 346.8,399.84 349.2,399.84 349.2,402.72 346.8,402.72 346.8,399.84 Z" /><path
         inkscape:connector-curvature="0"
         id="path10557"
         style="fill:#000000;fill-opacity:1;fill-rule:evenodd;stroke:none"
         d="M 342.48,399.84 344.88,399.84 344.88,402.72 342.48,402.72 342.48,399.84 Z" /><path
         inkscape:connector-curvature="0"
         id="path10559"
         style="fill:#000000;fill-opacity:1;fill-rule:evenodd;stroke:none"
         d="M 342.48,404.64 344.88,404.64 344.88,407.52 342.48,407.52 342.48,404.64 Z" /><path
         inkscape:connector-curvature="0"
         id="path10561"
         style="fill:#000000;fill-opacity:1;fill-rule:evenodd;stroke:none"
         d="M 346.8,404.64 349.2,404.64 349.2,407.52 346.8,407.52 346.8,404.64 Z" /><path
         inkscape:connector-curvature="0"
         id="path10563"
         style="fill:#000000;fill-opacity:1;fill-rule:evenodd;stroke:none"
         d="M 354,417.84 356.4,417.84 356.4,420.72 354,420.72 354,417.84 Z" /><path
         inkscape:connector-curvature="0"
         id="path10565"
         style="fill:#000000;fill-opacity:1;fill-rule:evenodd;stroke:none"
         d="M 354,422.64 356.4,422.64 356.4,425.52 354,425.52 354,422.64 Z" /><path
         inkscape:connector-curvature="0"
         id="path10567"
         style="fill:#000000;fill-opacity:1;fill-rule:evenodd;stroke:none"
         d="M 327.36,447.12 329.76,447.12 329.76,450 327.36,450 327.36,447.12 Z" /><path
         inkscape:connector-curvature="0"
         id="path10569"
         style="fill:#000000;fill-opacity:1;fill-rule:evenodd;stroke:none"
         d="M 327.36,442.32 329.76,442.32 329.76,445.2 327.36,445.2 327.36,442.32 Z" /><path
         inkscape:connector-curvature="0"
         id="path10571"
         style="fill:#000000;fill-opacity:1;fill-rule:evenodd;stroke:none"
         d="M 288.48,417.12 290.88,417.12 290.88,420 288.48,420 288.48,417.12 Z" /><path
         inkscape:connector-curvature="0"
         id="path10573"
         style="fill:#000000;fill-opacity:1;fill-rule:evenodd;stroke:none"
         d="M 288.48,421.92 290.88,421.92 290.88,424.8 288.48,424.8 288.48,421.92 Z" /><path
         inkscape:connector-curvature="0"
         id="path10575"
         style="fill:#000000;fill-opacity:1;fill-rule:evenodd;stroke:none"
         d="M 284.88,442.32 287.28,442.32 287.28,445.2 284.88,445.2 284.88,442.32 Z" /><path
         inkscape:connector-curvature="0"
         id="path10577"
         style="fill:#000000;fill-opacity:1;fill-rule:evenodd;stroke:none"
         d="M 284.88,447.12 287.28,447.12 287.28,450 284.88,450 284.88,447.12 Z" /><path
         inkscape:connector-curvature="0"
         id="path10579"
         style="fill:#000000;fill-opacity:1;fill-rule:evenodd;stroke:none"
         d="M 241.92,455.76 244.8,455.76 244.8,458.16 241.92,458.16 241.92,455.76 Z" /><path
         inkscape:connector-curvature="0"
         id="path10581"
         style="fill:#000000;fill-opacity:1;fill-rule:evenodd;stroke:none"
         d="M 246.72,455.76 249.6,455.76 249.6,458.16 246.72,458.16 246.72,455.76 Z" /><path
         inkscape:connector-curvature="0"
         id="path10583"
         style="fill:#000000;fill-opacity:1;fill-rule:evenodd;stroke:none"
         d="M 252,455.76 254.88,455.76 254.88,458.16 252,458.16 252,455.76 Z" /><path
         inkscape:connector-curvature="0"
         id="path10585"
         style="fill:#000000;fill-opacity:1;fill-rule:evenodd;stroke:none"
         d="M 256.8,455.76 259.68,455.76 259.68,458.16 256.8,458.16 256.8,455.76 Z" /><path
         inkscape:connector-curvature="0"
         id="path10587"
         style="fill:#000000;fill-opacity:1;fill-rule:evenodd;stroke:none"
         d="M 267.12,432.72 270,432.72 270,435.12 267.12,435.12 267.12,432.72 Z" /><path
         inkscape:connector-curvature="0"
         id="path10589"
         style="fill:#000000;fill-opacity:1;fill-rule:evenodd;stroke:none"
         d="M 271.92,432.72 274.8,432.72 274.8,435.12 271.92,435.12 271.92,432.72 Z" /><path
         inkscape:connector-curvature="0"
         id="path10591"
         style="fill:#000000;fill-opacity:1;fill-rule:evenodd;stroke:none"
         d="M 290.88,426.24 293.76,426.24 293.76,428.64 290.88,428.64 290.88,426.24 Z" /><path
         inkscape:connector-curvature="0"
         id="path10593"
         style="fill:#000000;fill-opacity:1;fill-rule:evenodd;stroke:none"
         d="M 295.68,426.24 298.56,426.24 298.56,428.64 295.68,428.64 295.68,426.24 Z" /><path
         inkscape:connector-curvature="0"
         id="path10595"
         style="fill:#000000;fill-opacity:1;fill-rule:evenodd;stroke:none"
         d="M 302.4,424.08 305.28,424.08 305.28,426.48 302.4,426.48 302.4,424.08 Z" /><path
         inkscape:connector-curvature="0"
         id="path10597"
         style="fill:#000000;fill-opacity:1;fill-rule:evenodd;stroke:none"
         d="M 307.2,424.08 310.08,424.08 310.08,426.48 307.2,426.48 307.2,424.08 Z" /><path
         inkscape:connector-curvature="0"
         id="path10599"
         style="fill:#000000;fill-opacity:1;fill-rule:evenodd;stroke:none"
         d="M 341.04,384.48 343.92,384.48 343.92,387.12 341.04,387.12 341.04,384.48 Z" /><path
         inkscape:connector-curvature="0"
         id="path10601"
         style="fill:#000000;fill-opacity:1;fill-rule:evenodd;stroke:none"
         d="M 336.24,384.48 339.12,384.48 339.12,387.12 336.24,387.12 336.24,384.48 Z" /><path
         inkscape:connector-curvature="0"
         id="path10603"
         style="fill:#000000;fill-opacity:1;fill-rule:evenodd;stroke:none"
         d="M 336.24,388.8 339.12,388.8 339.12,391.44 336.24,391.44 336.24,388.8 Z" /><path
         inkscape:connector-curvature="0"
         id="path10605"
         style="fill:#000000;fill-opacity:1;fill-rule:evenodd;stroke:none"
         d="M 341.04,388.8 343.92,388.8 343.92,391.44 341.04,391.44 341.04,388.8 Z" /><path
         inkscape:connector-curvature="0"
         id="path10607"
         style="fill:#000000;fill-opacity:1;fill-rule:evenodd;stroke:none"
         d="M 349.92,386.88 352.8,386.88 352.8,389.52 349.92,389.52 349.92,386.88 Z" /><path
         inkscape:connector-curvature="0"
         id="path10609"
         style="fill:#000000;fill-opacity:1;fill-rule:evenodd;stroke:none"
         d="M 354.72,386.88 357.6,386.88 357.6,389.52 354.72,389.52 354.72,386.88 Z" /><path
         inkscape:connector-curvature="0"
         id="path10611"
         style="fill:#000000;fill-opacity:1;fill-rule:evenodd;stroke:none"
         d="M 354.72,380.16 357.6,380.16 357.6,382.8 354.72,382.8 354.72,380.16 Z" /><path
         inkscape:connector-curvature="0"
         id="path10613"
         style="fill:#000000;fill-opacity:1;fill-rule:evenodd;stroke:none"
         d="M 349.92,380.16 352.8,380.16 352.8,382.8 349.92,382.8 349.92,380.16 Z" /><path
         inkscape:connector-curvature="0"
         id="path10615"
         style="fill:#000000;fill-opacity:1;fill-rule:evenodd;stroke:none"
         d="M 318,334.08 320.88,334.08 320.88,336.48 318,336.48 318,334.08 Z" /><path
         inkscape:connector-curvature="0"
         id="path10617"
         style="fill:#000000;fill-opacity:1;fill-rule:evenodd;stroke:none"
         d="M 313.2,334.08 316.08,334.08 316.08,336.48 313.2,336.48 313.2,334.08 Z" /><path
         inkscape:connector-curvature="0"
         id="path10619"
         style="fill:#000000;fill-opacity:1;fill-rule:evenodd;stroke:none"
         d="M 306.48,355.68 309.36,355.68 309.36,358.08 306.48,358.08 306.48,355.68 Z" /><path
         inkscape:connector-curvature="0"
         id="path10621"
         style="fill:#000000;fill-opacity:1;fill-rule:evenodd;stroke:none"
         d="M 301.68,355.68 304.56,355.68 304.56,358.08 301.68,358.08 301.68,355.68 Z" /><path
         inkscape:connector-curvature="0"
         id="path10623"
         style="fill:#000000;fill-opacity:1;fill-rule:evenodd;stroke:none"
         d="M 282.96,367.2 285.84,367.2 285.84,369.6 282.96,369.6 282.96,367.2 Z" /><path
         inkscape:connector-curvature="0"
         id="path10625"
         style="fill:#000000;fill-opacity:1;fill-rule:evenodd;stroke:none"
         d="M 287.76,367.2 290.64,367.2 290.64,369.6 287.76,369.6 287.76,367.2 Z" /><path
         inkscape:connector-curvature="0"
         id="path10627"
         style="fill:#000000;fill-opacity:1;fill-rule:evenodd;stroke:none"
         d="M 287.76,383.76 290.64,383.76 290.64,386.16 287.76,386.16 287.76,383.76 Z" /><path
         inkscape:connector-curvature="0"
         id="path10629"
         style="fill:#000000;fill-opacity:1;fill-rule:evenodd;stroke:none"
         d="M 282.96,383.76 285.84,383.76 285.84,386.16 282.96,386.16 282.96,383.76 Z" /><path
         inkscape:connector-curvature="0"
         id="path10631"
         style="fill:#000000;fill-opacity:1;fill-rule:evenodd;stroke:none"
         d="M 279.12,378.96 284.16,378.96 284.16,381.6 279.12,381.6 279.12,378.96 Z" /><path
         inkscape:connector-curvature="0"
         id="path10633"
         style="fill:#000000;fill-opacity:1;fill-rule:evenodd;stroke:none"
         d="M 279.12,372.24 284.16,372.24 284.16,375.12 279.12,375.12 279.12,372.24 Z" /><path
         inkscape:connector-curvature="0"
         id="path10635"
         style="fill:#000000;fill-opacity:1;fill-rule:evenodd;stroke:none"
         d="M 289.44,372.24 294.72,372.24 294.72,375.12 289.44,375.12 289.44,372.24 Z" /><path
         inkscape:connector-curvature="0"
         id="path10637"
         style="fill:#000000;fill-opacity:1;fill-rule:evenodd;stroke:none"
         d="M 289.44,378.96 294.72,378.96 294.72,381.6 289.44,381.6 289.44,378.96 Z" /><path
         inkscape:connector-curvature="0"
         id="path10639"
         style="fill:#000000;fill-opacity:1;fill-rule:evenodd;stroke:none"
         d="M 318.96,394.08 320.16,394.08 320.16,397.2 318.96,397.2 318.96,394.08 Z" /><path
         inkscape:connector-curvature="0"
         id="path10641"
         style="fill:#000000;fill-opacity:1;fill-rule:evenodd;stroke:none"
         d="M 316.8,394.08 318,394.08 318,397.2 316.8,397.2 316.8,394.08 Z" /><path
         inkscape:connector-curvature="0"
         id="path10643"
         style="fill:#000000;fill-opacity:1;fill-rule:evenodd;stroke:none"
         d="M 314.4,394.08 315.6,394.08 315.6,397.2 314.4,397.2 314.4,394.08 Z" /><path
         inkscape:connector-curvature="0"
         id="path10645"
         style="fill:#000000;fill-opacity:1;fill-rule:evenodd;stroke:none"
         d="M 312.24,394.08 313.44,394.08 313.44,397.2 312.24,397.2 312.24,394.08 Z" /><path
         inkscape:connector-curvature="0"
         id="path10647"
         style="fill:#000000;fill-opacity:1;fill-rule:evenodd;stroke:none"
         d="M 309.84,394.08 311.28,394.08 311.28,397.2 309.84,397.2 309.84,394.08 Z" /><path
         inkscape:connector-curvature="0"
         id="path10649"
         style="fill:#000000;fill-opacity:1;fill-rule:evenodd;stroke:none"
         d="M 307.68,394.08 308.88,394.08 308.88,397.2 307.68,397.2 307.68,394.08 Z" /><path
         inkscape:connector-curvature="0"
         id="path10651"
         style="fill:#000000;fill-opacity:1;fill-rule:evenodd;stroke:none"
         d="M 305.28,394.08 306.72,394.08 306.72,397.2 305.28,397.2 305.28,394.08 Z" /><path
         inkscape:connector-curvature="0"
         id="path10653"
         style="fill:#000000;fill-opacity:1;fill-rule:evenodd;stroke:none"
         d="M 303.12,394.08 304.32,394.08 304.32,397.2 303.12,397.2 303.12,394.08 Z" /><path
         inkscape:connector-curvature="0"
         id="path10655"
         style="fill:#000000;fill-opacity:1;fill-rule:evenodd;stroke:none"
         d="M 303.12,369.6 304.32,369.6 304.32,372.96 303.12,372.96 303.12,369.6 Z" /><path
         inkscape:connector-curvature="0"
         id="path10657"
         style="fill:#000000;fill-opacity:1;fill-rule:evenodd;stroke:none"
         d="M 305.28,369.6 306.72,369.6 306.72,372.96 305.28,372.96 305.28,369.6 Z" /><path
         inkscape:connector-curvature="0"
         id="path10659"
         style="fill:#000000;fill-opacity:1;fill-rule:evenodd;stroke:none"
         d="M 307.68,369.6 308.88,369.6 308.88,372.96 307.68,372.96 307.68,369.6 Z" /><path
         inkscape:connector-curvature="0"
         id="path10661"
         style="fill:#000000;fill-opacity:1;fill-rule:evenodd;stroke:none"
         d="M 309.84,369.6 311.28,369.6 311.28,372.96 309.84,372.96 309.84,369.6 Z" /><path
         inkscape:connector-curvature="0"
         id="path10663"
         style="fill:#000000;fill-opacity:1;fill-rule:evenodd;stroke:none"
         d="M 312.24,369.6 313.44,369.6 313.44,372.96 312.24,372.96 312.24,369.6 Z" /><path
         inkscape:connector-curvature="0"
         id="path10665"
         style="fill:#000000;fill-opacity:1;fill-rule:evenodd;stroke:none"
         d="M 314.4,369.6 315.6,369.6 315.6,372.96 314.4,372.96 314.4,369.6 Z" /><path
         inkscape:connector-curvature="0"
         id="path10667"
         style="fill:#000000;fill-opacity:1;fill-rule:evenodd;stroke:none"
         d="M 316.8,369.6 318,369.6 318,372.96 316.8,372.96 316.8,369.6 Z" /><path
         inkscape:connector-curvature="0"
         id="path10669"
         style="fill:#000000;fill-opacity:1;fill-rule:evenodd;stroke:none"
         d="M 318.96,369.6 320.16,369.6 320.16,372.96 318.96,372.96 318.96,369.6 Z" /><path
         inkscape:connector-curvature="0"
         id="path10671"
         style="fill:#000000;fill-opacity:1;fill-rule:evenodd;stroke:none"
         d="M 322.08,374.88 325.44,374.88 325.44,376.32 322.08,376.32 322.08,374.88 Z" /><path
         inkscape:connector-curvature="0"
         id="path10673"
         style="fill:#000000;fill-opacity:1;fill-rule:evenodd;stroke:none"
         d="M 322.08,377.28 325.44,377.28 325.44,378.48 322.08,378.48 322.08,377.28 Z" /><path
         inkscape:connector-curvature="0"
         id="path10675"
         style="fill:#000000;fill-opacity:1;fill-rule:evenodd;stroke:none"
         d="M 322.08,379.44 325.44,379.44 325.44,380.64 322.08,380.64 322.08,379.44 Z" /><path
         inkscape:connector-curvature="0"
         id="path10677"
         style="fill:#000000;fill-opacity:1;fill-rule:evenodd;stroke:none"
         d="M 322.08,381.6 325.44,381.6 325.44,383.04 322.08,383.04 322.08,381.6 Z" /><path
         inkscape:connector-curvature="0"
         id="path10679"
         style="fill:#000000;fill-opacity:1;fill-rule:evenodd;stroke:none"
         d="M 322.08,384 325.44,384 325.44,385.2 322.08,385.2 322.08,384 Z" /><path
         inkscape:connector-curvature="0"
         id="path10681"
         style="fill:#000000;fill-opacity:1;fill-rule:evenodd;stroke:none"
         d="M 322.08,386.16 325.44,386.16 325.44,387.6 322.08,387.6 322.08,386.16 Z" /><path
         inkscape:connector-curvature="0"
         id="path10683"
         style="fill:#000000;fill-opacity:1;fill-rule:evenodd;stroke:none"
         d="M 322.08,388.56 325.44,388.56 325.44,389.76 322.08,389.76 322.08,388.56 Z" /><path
         inkscape:connector-curvature="0"
         id="path10685"
         style="fill:#000000;fill-opacity:1;fill-rule:evenodd;stroke:none"
         d="M 322.08,390.72 325.44,390.72 325.44,392.16 322.08,392.16 322.08,390.72 Z" /><path
         inkscape:connector-curvature="0"
         id="path10687"
         style="fill:#000000;fill-opacity:1;fill-rule:evenodd;stroke:none"
         d="M 297.84,390.72 301.2,390.72 301.2,392.16 297.84,392.16 297.84,390.72 Z" /><path
         inkscape:connector-curvature="0"
         id="path10689"
         style="fill:#000000;fill-opacity:1;fill-rule:evenodd;stroke:none"
         d="M 297.84,388.56 301.2,388.56 301.2,389.76 297.84,389.76 297.84,388.56 Z" /><path
         inkscape:connector-curvature="0"
         id="path10691"
         style="fill:#000000;fill-opacity:1;fill-rule:evenodd;stroke:none"
         d="M 297.84,386.16 301.2,386.16 301.2,387.6 297.84,387.6 297.84,386.16 Z" /><path
         inkscape:connector-curvature="0"
         id="path10693"
         style="fill:#000000;fill-opacity:1;fill-rule:evenodd;stroke:none"
         d="M 297.84,384 301.2,384 301.2,385.2 297.84,385.2 297.84,384 Z" /><path
         inkscape:connector-curvature="0"
         id="path10695"
         style="fill:#000000;fill-opacity:1;fill-rule:evenodd;stroke:none"
         d="M 297.84,381.6 301.2,381.6 301.2,383.04 297.84,383.04 297.84,381.6 Z" /><path
         inkscape:connector-curvature="0"
         id="path10697"
         style="fill:#000000;fill-opacity:1;fill-rule:evenodd;stroke:none"
         d="M 297.84,379.44 301.2,379.44 301.2,380.64 297.84,380.64 297.84,379.44 Z" /><path
         inkscape:connector-curvature="0"
         id="path10699"
         style="fill:#000000;fill-opacity:1;fill-rule:evenodd;stroke:none"
         d="M 297.84,377.28 301.2,377.28 301.2,378.48 297.84,378.48 297.84,377.28 Z" /><path
         inkscape:connector-curvature="0"
         id="path10701"
         style="fill:#000000;fill-opacity:1;fill-rule:evenodd;stroke:none"
         d="M 297.84,374.88 301.2,374.88 301.2,376.32 297.84,376.32 297.84,374.88 Z" /></g></g></svg>