  0
SECTION
  2
HEADER
  9
$ACADVER
  1
AC1009
  9
$EXTMIN
 10
0.0
 20
0.0
 30
0.0
  9
$EXTMAX
 10
1000.0
 20
1000.0
 30
0.0
  9
$FILLMODE
 70
 0
  9
$SPLFRAME
 70
 1
  0
ENDSEC
  0
SECTION
  2
TABLES
  0
TABLE
  2
LAYER
 70
1
  0
LAYER
  2
0
 70
     0
 62
     7
  6
CONTINUOUS
  0
ENDTAB
  0
ENDSEC
  0
SECTION
  2
ENTITIES
  0
POLYLINE
  8
0
 62
     0
 66
     1
 10
0
 20
0
 30
0.0
 70
     1
 40
0
 41
0
  0
VERTEX
  8
0
 10
1.74707
 20
10.2981
 30
0.0
 40
0
 41
0
  0
VERTEX
  8
0
 10
1.8004
 20
10.2981
 30
0.0
 40
0
 41
0
  0
VERTEX
  8
0
 10
1.8004
 20
10.2814
 30
0.0
 40
0
 41
0
  0
VERTEX
  8
0
 10
1.74707
 20
10.2814
 30
0.0
 40
0
 41
0
  0
VERTEX
  8
0
 10
1.74707
 20
10.2981
 30
0.0
 40
0
 41
0
  0
SEQEND
 8
0
  0
POLYLINE
  8
0
 62
     0
 66
     1
 10
0
 20
0
 30
0.0
 70
     1
 40
0
 41
0
  0
VERTEX
  8
0
 10
1.74707
 20
10.2714
 30
0.0
 40
0
 41
0
  0
VERTEX
  8
0
 10
1.8004
 20
10.2714
 30
0.0
 40
0
 41
0
  0
VERTEX
  8
0
 10
1.8004
 20
10.2547
 30
0.0
 40
0
 41
0
  0
VERTEX
  8
0
 10
1.74707
 20
10.2547
 30
0.0
 40
0
 41
0
  0
VERTEX
  8
0
 10
1.74707
 20
10.2714
 30
0.0
 40
0
 41
0
  0
SEQEND
 8
0
  0
POLYLINE
  8
0
 62
     0
 66
     1
 10
0
 20
0
 30
0.0
 70
     1
 40
0
 41
0
  0
VERTEX
  8
0
 10
1.74707
 20
10.2447
 30
0.0
 40
0
 41
0
  0
VERTEX
  8
0
 10
1.8004
 20
10.2447
 30
0.0
 40
0
 41
0
  0
VERTEX
  8
0
 10
1.8004
 20
10.2314
 30
0.0
 40
0
 41
0
  0
VERTEX
  8
0
 10
1.74707
 20
10.2314
 30
0.0
 40
0
 41
0
  0
VERTEX
  8
0
 10
1.74707
 20
10.2447
 30
0.0
 40
0
 41
0
  0
SEQEND
 8
0
  0
POLYLINE
  8
0
 62
     0
 66
     1
 10
0
 20
0
 30
0.0
 70
     1
 40
0
 41
0
  0
VERTEX
  8
0
 10
1.74707
 20
10.2214
 30
0.0
 40
0
 41
0
  0
VERTEX
  8
0
 10
1.8004
 20
10.2214
 30
0.0
 40
0
 41
0
  0
VERTEX
  8
0
 10
1.8004
 20
10.2047
 30
0.0
 40
0
 41
0
  0
VERTEX
  8
0
 10
1.74707
 20
10.2047
 30
0.0
 40
0
 41
0
  0
VERTEX
  8
0
 10
1.74707
 20
10.2214
 30
0.0
 40
0
 41
0
  0
SEQEND
 8
0
  0
POLYLINE
  8
0
 62
     0
 66
     1
 10
0
 20
0
 30
0.0
 70
     1
 40
0
 41
0
  0
VERTEX
  8
0
 10
1.57374
 20
10.2214
 30
0.0
 40
0
 41
0
  0
VERTEX
  8
0
 10
1.62706
 20
10.2214
 30
0.0
 40
0
 41
0
  0
VERTEX
  8
0
 10
1.62706
 20
10.2047
 30
0.0
 40
0
 41
0
  0
VERTEX
  8
0
 10
1.57374
 20
10.2047
 30
0.0
 40
0
 41
0
  0
VERTEX
  8
0
 10
1.57374
 20
10.2214
 30
0.0
 40
0
 41
0
  0
SEQEND
 8
0
  0
POLYLINE
  8
0
 62
     0
 66
     1
 10
0
 20
0
 30
0.0
 70
     1
 40
0
 41
0
  0
VERTEX
  8
0
 10
1.57374
 20
10.2447
 30
0.0
 40
0
 41
0
  0
VERTEX
  8
0
 10
1.62706
 20
10.2447
 30
0.0
 40
0
 41
0
  0
VERTEX
  8
0
 10
1.62706
 20
10.2314
 30
0.0
 40
0
 41
0
  0
VERTEX
  8
0
 10
1.57374
 20
10.2314
 30
0.0
 40
0
 41
0
  0
VERTEX
  8
0
 10
1.57374
 20
10.2447
 30
0.0
 40
0
 41
0
  0
SEQEND
 8
0
  0
POLYLINE
  8
0
 62
     0
 66
     1
 10
0
 20
0
 30
0.0
 70
     1
 40
0
 41
0
  0
VERTEX
  8
0
 10
1.57374
 20
10.2714
 30
0.0
 40
0
 41
0
  0
VERTEX
  8
0
 10
1.62706
 20
10.2714
 30
0.0
 40
0
 41
0
  0
VERTEX
  8
0
 10
1.62706
 20
10.2547
 30
0.0
 40
0
 41
0
  0
VERTEX
  8
0
 10
1.57374
 20
10.2547
 30
0.0
 40
0
 41
0
  0
VERTEX
  8
0
 10
1.57374
 20
10.2714
 30
0.0
 40
0
 41
0
  0
SEQEND
 8
0
  0
POLYLINE
  8
0
 62
     0
 66
     1
 10
0
 20
0
 30
0.0
 70
     1
 40
0
 41
0
  0
VERTEX
  8
0
 10
1.57374
 20
10.2981
 30
0.0
 40
0
 41
0
  0
VERTEX
  8
0
 10
1.62706
 20
10.2981
 30
0.0
 40
0
 41
0
  0
VERTEX
  8
0
 10
1.62706
 20
10.2814
 30
0.0
 40
0
 41
0
  0
VERTEX
  8
0
 10
1.57374
 20
10.2814
 30
0.0
 40
0
 41
0
  0
VERTEX
  8
0
 10
1.57374
 20
10.2981
 30
0.0
 40
0
 41
0
  0
SEQEND
 8
0
  0
POLYLINE
  8
0
 62
     0
 66
     1
 10
0
 20
0
 30
0.0
 70
     1
 40
0
 41
0
  0
VERTEX
  8
0
 10
0.573731
 20
10.288
 30
0.0
 40
0
 41
0
  0
VERTEX
  8
0
 10
0.627061
 20
10.288
 30
0.0
 40
0
 41
0
  0
VERTEX
  8
0
 10
0.627061
 20
10.2781
 30
0.0
 40
0
 41
0
  0
VERTEX
  8
0
 10
0.573731
 20
10.2781
 30
0.0
 40
0
 41
0
  0
VERTEX
  8
0
 10
0.573731
 20
10.288
 30
0.0
 40
0
 41
0
  0
SEQEND
 8
0
  0
POLYLINE
  8
0
 62
     0
 66
     1
 10
0
 20
0
 30
0.0
 70
     1
 40
0
 41
0
  0
VERTEX
  8
0
 10
0.573731
 20
10.3047
 30
0.0
 40
0
 41
0
  0
VERTEX
  8
0
 10
0.627061
 20
10.3047
 30
0.0
 40
0
 41
0
  0
VERTEX
  8
0
 10
0.627061
 20
10.2981
 30
0.0
 40
0
 41
0
  0
VERTEX
  8
0
 10
0.573731
 20
10.2981
 30
0.0
 40
0
 41
0
  0
VERTEX
  8
0
 10
0.573731
 20
10.3047
 30
0.0
 40
0
 41
0
  0
SEQEND
 8
0
  0
POLYLINE
  8
0
 62
     0
 66
     1
 10
0
 20
0
 30
0.0
 70
     1
 40
0
 41
0
  0
VERTEX
  8
0
 10
0.573731
 20
10.3247
 30
0.0
 40
0
 41
0
  0
VERTEX
  8
0
 10
0.627061
 20
10.3247
 30
0.0
 40
0
 41
0
  0
VERTEX
  8
0
 10
0.627061
 20
10.318
 30
0.0
 40
0
 41
0
  0
VERTEX
  8
0
 10
0.573731
 20
10.318
 30
0.0
 40
0
 41
0
  0
VERTEX
  8
0
 10
0.573731
 20
10.3247
 30
0.0
 40
0
 41
0
  0
SEQEND
 8
0
  0
POLYLINE
  8
0
 62
     0
 66
     1
 10
0
 20
0
 30
0.0
 70
     1
 40
0
 41
0
  0
VERTEX
  8
0
 10
0.573731
 20
10.3447
 30
0.0
 40
0
 41
0
  0
VERTEX
  8
0
 10
0.627061
 20
10.3447
 30
0.0
 40
0
 41
0
  0
VERTEX
  8
0
 10
0.627061
 20
10.3381
 30
0.0
 40
0
 41
0
  0
VERTEX
  8
0
 10
0.573731
 20
10.3381
 30
0.0
 40
0
 41
0
  0
VERTEX
  8
0
 10
0.573731
 20
10.3447
 30
0.0
 40
0
 41
0
  0
SEQEND
 8
0
  0
POLYLINE
  8
0
 62
     0
 66
     1
 10
0
 20
0
 30
0.0
 70
     1
 40
0
 41
0
  0
VERTEX
  8
0
 10
0.573731
 20
10.3648
 30
0.0
 40
0
 41
0
  0
VERTEX
  8
0
 10
0.627061
 20
10.3648
 30
0.0
 40
0
 41
0
  0
VERTEX
  8
0
 10
0.627061
 20
10.3547
 30
0.0
 40
0
 41
0
  0
VERTEX
  8
0
 10
0.573731
 20
10.3547
 30
0.0
 40
0
 41
0
  0
VERTEX
  8
0
 10
0.573731
 20
10.3648
 30
0.0
 40
0
 41
0
  0
SEQEND
 8
0
  0
POLYLINE
  8
0
 62
     0
 66
     1
 10
0
 20
0
 30
0.0
 70
     1
 40
0
 41
0
  0
VERTEX
  8
0
 10
0.747071
 20
10.3648
 30
0.0
 40
0
 41
0
  0
VERTEX
  8
0
 10
0.800401
 20
10.3648
 30
0.0
 40
0
 41
0
  0
VERTEX
  8
0
 10
0.800401
 20
10.3547
 30
0.0
 40
0
 41
0
  0
VERTEX
  8
0
 10
0.747071
 20
10.3547
 30
0.0
 40
0
 41
0
  0
VERTEX
  8
0
 10
0.747071
 20
10.3648
 30
0.0
 40
0
 41
0
  0
SEQEND
 8
0
  0
POLYLINE
  8
0
 62
     0
 66
     1
 10
0
 20
0
 30
0.0
 70
     1
 40
0
 41
0
  0
VERTEX
  8
0
 10
0.747071
 20
10.3447
 30
0.0
 40
0
 41
0
  0
VERTEX
  8
0
 10
0.800401
 20
10.3447
 30
0.0
 40
0
 41
0
  0
VERTEX
  8
0
 10
0.800401
 20
10.3381
 30
0.0
 40
0
 41
0
  0
VERTEX
  8
0
 10
0.747071
 20
10.3381
 30
0.0
 40
0
 41
0
  0
VERTEX
  8
0
 10
0.747071
 20
10.3447
 30
0.0
 40
0
 41
0
  0
SEQEND
 8
0
  0
POLYLINE
  8
0
 62
     0
 66
     1
 10
0
 20
0
 30
0.0
 70
     1
 40
0
 41
0
  0
VERTEX
  8
0
 10
0.747071
 20
10.3247
 30
0.0
 40
0
 41
0
  0
VERTEX
  8
0
 10
0.800401
 20
10.3247
 30
0.0
 40
0
 41
0
  0
VERTEX
  8
0
 10
0.800401
 20
10.318
 30
0.0
 40
0
 41
0
  0
VERTEX
  8
0
 10
0.747071
 20
10.318
 30
0.0
 40
0
 41
0
  0
VERTEX
  8
0
 10
0.747071
 20
10.3247
 30
0.0
 40
0
 41
0
  0
SEQEND
 8
0
  0
POLYLINE
  8
0
 62
     0
 66
     1
 10
0
 20
0
 30
0.0
 70
     1
 40
0
 41
0
  0
VERTEX
  8
0
 10
0.747071
 20
10.3047
 30
0.0
 40
0
 41
0
  0
VERTEX
  8
0
 10
0.800401
 20
10.3047
 30
0.0
 40
0
 41
0
  0
VERTEX
  8
0
 10
0.800401
 20
10.2981
 30
0.0
 40
0
 41
0
  0
VERTEX
  8
0
 10
0.747071
 20
10.2981
 30
0.0
 40
0
 41
0
  0
VERTEX
  8
0
 10
0.747071
 20
10.3047
 30
0.0
 40
0
 41
0
  0
SEQEND
 8
0
  0
POLYLINE
  8
0
 62
     0
 66
     1
 10
0
 20
0
 30
0.0
 70
     1
 40
0
 41
0
  0
VERTEX
  8
0
 10
0.747071
 20
10.288
 30
0.0
 40
0
 41
0
  0
VERTEX
  8
0
 10
0.800401
 20
10.288
 30
0.0
 40
0
 41
0
  0
VERTEX
  8
0
 10
0.800401
 20
10.2781
 30
0.0
 40
0
 41
0
  0
VERTEX
  8
0
 10
0.747071
 20
10.2781
 30
0.0
 40
0
 41
0
  0
VERTEX
  8
0
 10
0.747071
 20
10.288
 30
0.0
 40
0
 41
0
  0
SEQEND
 8
0
  0
POLYLINE
  8
0
 62
     0
 66
     1
 10
0
 20
0
 30
0.0
 70
     1
 40
0
 41
0
  0
VERTEX
  8
0
 10
1.22711
 20
9.29807
 30
0.0
 40
0
 41
0
  0
VERTEX
  8
0
 10
1.31375
 20
9.29807
 30
0.0
 40
0
 41
0
  0
VERTEX
  8
0
 10
1.31375
 20
9.27474
 30
0.0
 40
0
 41
0
  0
VERTEX
  8
0
 10
1.22711
 20
9.27474
 30
0.0
 40
0
 41
0
  0
VERTEX
  8
0
 10
1.22711
 20
9.29807
 30
0.0
 40
0
 41
0
  0
SEQEND
 8
0
  0
POLYLINE
  8
0
 62
     0
 66
     1
 10
0
 20
0
 30
0.0
 70
     1
 40
0
 41
0
  0
VERTEX
  8
0
 10
1.22711
 20
9.24804
 30
0.0
 40
0
 41
0
  0
VERTEX
  8
0
 10
1.31375
 20
9.24804
 30
0.0
 40
0
 41
0
  0
VERTEX
  8
0
 10
1.31375
 20
9.22472
 30
0.0
 40
0
 41
0
  0
VERTEX
  8
0
 10
1.22711
 20
9.22472
 30
0.0
 40
0
 41
0
  0
VERTEX
  8
0
 10
1.22711
 20
9.24804
 30
0.0
 40
0
 41
0
  0
SEQEND
 8
0
  0
POLYLINE
  8
0
 62
     0
 66
     1
 10
0
 20
0
 30
0.0
 70
     1
 40
0
 41
0
  0
VERTEX
  8
0
 10
1.22711
 20
9.19808
 30
0.0
 40
0
 41
0
  0
VERTEX
  8
0
 10
1.31375
 20
9.19808
 30
0.0
 40
0
 41
0
  0
VERTEX
  8
0
 10
1.31375
 20
9.17469
 30
0.0
 40
0
 41
0
  0
VERTEX
  8
0
 10
1.22711
 20
9.17469
 30
0.0
 40
0
 41
0
  0
VERTEX
  8
0
 10
1.22711
 20
9.19808
 30
0.0
 40
0
 41
0
  0
SEQEND
 8
0
  0
POLYLINE
  8
0
 62
     0
 66
     1
 10
0
 20
0
 30
0.0
 70
     1
 40
0
 41
0
  0
VERTEX
  8
0
 10
1.22711
 20
9.14806
 30
0.0
 40
0
 41
0
  0
VERTEX
  8
0
 10
1.31375
 20
9.14806
 30
0.0
 40
0
 41
0
  0
VERTEX
  8
0
 10
1.31375
 20
9.12472
 30
0.0
 40
0
 41
0
  0
VERTEX
  8
0
 10
1.22711
 20
9.12472
 30
0.0
 40
0
 41
0
  0
VERTEX
  8
0
 10
1.22711
 20
9.14806
 30
0.0
 40
0
 41
0
  0
SEQEND
 8
0
  0
POLYLINE
  8
0
 62
     0
 66
     1
 10
0
 20
0
 30
0.0
 70
     1
 40
0
 41
0
  0
VERTEX
  8
0
 10
1.02376
 20
9.14806
 30
0.0
 40
0
 41
0
  0
VERTEX
  8
0
 10
1.1071
 20
9.14806
 30
0.0
 40
0
 41
0
  0
VERTEX
  8
0
 10
1.1071
 20
9.12472
 30
0.0
 40
0
 41
0
  0
VERTEX
  8
0
 10
1.02376
 20
9.12472
 30
0.0
 40
0
 41
0
  0
VERTEX
  8
0
 10
1.02376
 20
9.14806
 30
0.0
 40
0
 41
0
  0
SEQEND
 8
0
  0
POLYLINE
  8
0
 62
     0
 66
     1
 10
0
 20
0
 30
0.0
 70
     1
 40
0
 41
0
  0
VERTEX
  8
0
 10
1.02376
 20
9.19808
 30
0.0
 40
0
 41
0
  0
VERTEX
  8
0
 10
1.1071
 20
9.19808
 30
0.0
 40
0
 41
0
  0
VERTEX
  8
0
 10
1.1071
 20
9.17469
 30
0.0
 40
0
 41
0
  0
VERTEX
  8
0
 10
1.02376
 20
9.17469
 30
0.0
 40
0
 41
0
  0
VERTEX
  8
0
 10
1.02376
 20
9.19808
 30
0.0
 40
0
 41
0
  0
SEQEND
 8
0
  0
POLYLINE
  8
0
 62
     0
 66
     1
 10
0
 20
0
 30
0.0
 70
     1
 40
0
 41
0
  0
VERTEX
  8
0
 10
1.02376
 20
9.24804
 30
0.0
 40
0
 41
0
  0
VERTEX
  8
0
 10
1.1071
 20
9.24804
 30
0.0
 40
0
 41
0
  0
VERTEX
  8
0
 10
1.1071
 20
9.22472
 30
0.0
 40
0
 41
0
  0
VERTEX
  8
0
 10
1.02376
 20
9.22472
 30
0.0
 40
0
 41
0
  0
VERTEX
  8
0
 10
1.02376
 20
9.24804
 30
0.0
 40
0
 41
0
  0
SEQEND
 8
0
  0
POLYLINE
  8
0
 62
     0
 66
     1
 10
0
 20
0
 30
0.0
 70
     1
 40
0
 41
0
  0
VERTEX
  8
0
 10
1.02376
 20
9.29807
 30
0.0
 40
0
 41
0
  0
VERTEX
  8
0
 10
1.1071
 20
9.29807
 30
0.0
 40
0
 41
0
  0
VERTEX
  8
0
 10
1.1071
 20
9.27474
 30
0.0
 40
0
 41
0
  0
VERTEX
  8
0
 10
1.02376
 20
9.27474
 30
0.0
 40
0
 41
0
  0
VERTEX
  8
0
 10
1.02376
 20
9.29807
 30
0.0
 40
0
 41
0
  0
SEQEND
 8
0
  0
POLYLINE
  8
0
 62
     0
 66
     1
 10
0
 20
0
 30
0.0
 70
     1
 40
0
 41
0
  0
VERTEX
  8
0
 10
0.950413
 20
10.5414
 30
0.0
 40
0
 41
0
  0
VERTEX
  8
0
 10
0.973742
 20
10.5414
 30
0.0
 40
0
 41
0
  0
VERTEX
  8
0
 10
0.973742
 20
10.4547
 30
0.0
 40
0
 41
0
  0
VERTEX
  8
0
 10
0.950413
 20
10.4547
 30
0.0
 40
0
 41
0
  0
VERTEX
  8
0
 10
0.950413
 20
10.5414
 30
0.0
 40
0
 41
0
  0
SEQEND
 8
0
  0
POLYLINE
  8
0
 62
     0
 66
     1
 10
0
 20
0
 30
0.0
 70
     1
 40
0
 41
0
  0
VERTEX
  8
0
 10
1.00043
 20
10.5414
 30
0.0
 40
0
 41
0
  0
VERTEX
  8
0
 10
1.02376
 20
10.5414
 30
0.0
 40
0
 41
0
  0
VERTEX
  8
0
 10
1.02376
 20
10.4547
 30
0.0
 40
0
 41
0
  0
VERTEX
  8
0
 10
1.00043
 20
10.4547
 30
0.0
 40
0
 41
0
  0
VERTEX
  8
0
 10
1.00043
 20
10.5414
 30
0.0
 40
0
 41
0
  0
SEQEND
 8
0
  0
POLYLINE
  8
0
 62
     0
 66
     1
 10
0
 20
0
 30
0.0
 70
     1
 40
0
 41
0
  0
VERTEX
  8
0
 10
1.0504
 20
10.5414
 30
0.0
 40
0
 41
0
  0
VERTEX
  8
0
 10
1.07373
 20
10.5414
 30
0.0
 40
0
 41
0
  0
VERTEX
  8
0
 10
1.07373
 20
10.4547
 30
0.0
 40
0
 41
0
  0
VERTEX
  8
0
 10
1.0504
 20
10.4547
 30
0.0
 40
0
 41
0
  0
VERTEX
  8
0
 10
1.0504
 20
10.5414
 30
0.0
 40
0
 41
0
  0
SEQEND
 8
0
  0
POLYLINE
  8
0
 62
     0
 66
     1
 10
0
 20
0
 30
0.0
 70
     1
 40
0
 41
0
  0
VERTEX
  8
0
 10
1.10042
 20
10.5414
 30
0.0
 40
0
 41
0
  0
VERTEX
  8
0
 10
1.12375
 20
10.5414
 30
0.0
 40
0
 41
0
  0
VERTEX
  8
0
 10
1.12375
 20
10.4547
 30
0.0
 40
0
 41
0
  0
VERTEX
  8
0
 10
1.10042
 20
10.4547
 30
0.0
 40
0
 41
0
  0
VERTEX
  8
0
 10
1.10042
 20
10.5414
 30
0.0
 40
0
 41
0
  0
SEQEND
 8
0
  0
POLYLINE
  8
0
 62
     0
 66
     1
 10
0
 20
0
 30
0.0
 70
     1
 40
0
 41
0
  0
VERTEX
  8
0
 10
1.2704
 20
10.5414
 30
0.0
 40
0
 41
0
  0
VERTEX
  8
0
 10
1.29373
 20
10.5414
 30
0.0
 40
0
 41
0
  0
VERTEX
  8
0
 10
1.29373
 20
10.4547
 30
0.0
 40
0
 41
0
  0
VERTEX
  8
0
 10
1.2704
 20
10.4547
 30
0.0
 40
0
 41
0
  0
VERTEX
  8
0
 10
1.2704
 20
10.5414
 30
0.0
 40
0
 41
0
  0
SEQEND
 8
0
  0
POLYLINE
  8
0
 62
     0
 66
     1
 10
0
 20
0
 30
0.0
 70
     1
 40
0
 41
0
  0
VERTEX
  8
0
 10
1.32042
 20
10.5414
 30
0.0
 40
0
 41
0
  0
VERTEX
  8
0
 10
1.34375
 20
10.5414
 30
0.0
 40
0
 41
0
  0
VERTEX
  8
0
 10
1.34375
 20
10.4547
 30
0.0
 40
0
 41
0
  0
VERTEX
  8
0
 10
1.32042
 20
10.4547
 30
0.0
 40
0
 41
0
  0
VERTEX
  8
0
 10
1.32042
 20
10.5414
 30
0.0
 40
0
 41
0
  0
SEQEND
 8
0
  0
POLYLINE
  8
0
 62
     0
 66
     1
 10
0
 20
0
 30
0.0
 70
     1
 40
0
 41
0
  0
VERTEX
  8
0
 10
1.37044
 20
10.5414
 30
0.0
 40
0
 41
0
  0
VERTEX
  8
0
 10
1.39378
 20
10.5414
 30
0.0
 40
0
 41
0
  0
VERTEX
  8
0
 10
1.39378
 20
10.4547
 30
0.0
 40
0
 41
0
  0
VERTEX
  8
0
 10
1.37044
 20
10.4547
 30
0.0
 40
0
 41
0
  0
VERTEX
  8
0
 10
1.37044
 20
10.5414
 30
0.0
 40
0
 41
0
  0
SEQEND
 8
0
  0
POLYLINE
  8
0
 62
     0
 66
     1
 10
0
 20
0
 30
0.0
 70
     1
 40
0
 41
0
  0
VERTEX
  8
0
 10
1.42042
 20
10.5414
 30
0.0
 40
0
 41
0
  0
VERTEX
  8
0
 10
1.44374
 20
10.5414
 30
0.0
 40
0
 41
0
  0
VERTEX
  8
0
 10
1.44374
 20
10.4547
 30
0.0
 40
0
 41
0
  0
VERTEX
  8
0
 10
1.42042
 20
10.4547
 30
0.0
 40
0
 41
0
  0
VERTEX
  8
0
 10
1.42042
 20
10.5414
 30
0.0
 40
0
 41
0
  0
SEQEND
 8
0
  0
POLYLINE
  8
0
 62
     0
 66
     1
 10
0
 20
0
 30
0.0
 70
     1
 40
0
 41
0
  0
VERTEX
  8
0
 10
1.42042
 20
10.748
 30
0.0
 40
0
 41
0
  0
VERTEX
  8
0
 10
1.44374
 20
10.748
 30
0.0
 40
0
 41
0
  0
VERTEX
  8
0
 10
1.44374
 20
10.6614
 30
0.0
 40
0
 41
0
  0
VERTEX
  8
0
 10
1.42042
 20
10.6614
 30
0.0
 40
0
 41
0
  0
VERTEX
  8
0
 10
1.42042
 20
10.748
 30
0.0
 40
0
 41
0
  0
SEQEND
 8
0
  0
POLYLINE
  8
0
 62
     0
 66
     1
 10
0
 20
0
 30
0.0
 70
     1
 40
0
 41
0
  0
VERTEX
  8
0
 10
1.37044
 20
10.748
 30
0.0
 40
0
 41
0
  0
VERTEX
  8
0
 10
1.39378
 20
10.748
 30
0.0
 40
0
 41
0
  0
VERTEX
  8
0
 10
1.39378
 20
10.6614
 30
0.0
 40
0
 41
0
  0
VERTEX
  8
0
 10
1.37044
 20
10.6614
 30
0.0
 40
0
 41
0
  0
VERTEX
  8
0
 10
1.37044
 20
10.748
 30
0.0
 40
0
 41
0
  0
SEQEND
 8
0
  0
POLYLINE
  8
0
 62
     0
 66
     1
 10
0
 20
0
 30
0.0
 70
     1
 40
0
 41
0
  0
VERTEX
  8
0
 10
1.32042
 20
10.748
 30
0.0
 40
0
 41
0
  0
VERTEX
  8
0
 10
1.34375
 20
10.748
 30
0.0
 40
0
 41
0
  0
VERTEX
  8
0
 10
1.34375
 20
10.6614
 30
0.0
 40
0
 41
0
  0
VERTEX
  8
0
 10
1.32042
 20
10.6614
 30
0.0
 40
0
 41
0
  0
VERTEX
  8
0
 10
1.32042
 20
10.748
 30
0.0
 40
0
 41
0
  0
SEQEND
 8
0
  0
POLYLINE
  8
0
 62
     0
 66
     1
 10
0
 20
0
 30
0.0
 70
     1
 40
0
 41
0
  0
VERTEX
  8
0
 10
1.2704
 20
10.748
 30
0.0
 40
0
 41
0
  0
VERTEX
  8
0
 10
1.29373
 20
10.748
 30
0.0
 40
0
 41
0
  0
VERTEX
  8
0
 10
1.29373
 20
10.6614
 30
0.0
 40
0
 41
0
  0
VERTEX
  8
0
 10
1.2704
 20
10.6614
 30
0.0
 40
0
 41
0
  0
VERTEX
  8
0
 10
1.2704
 20
10.748
 30
0.0
 40
0
 41
0
  0
SEQEND
 8
0
  0
POLYLINE
  8
0
 62
     0
 66
     1
 10
0
 20
0
 30
0.0
 70
     1
 40
0
 41
0
  0
VERTEX
  8
0
 10
1.10042
 20
10.748
 30
0.0
 40
0
 41
0
  0
VERTEX
  8
0
 10
1.12375
 20
10.748
 30
0.0
 40
0
 41
0
  0
VERTEX
  8
0
 10
1.12375
 20
10.6614
 30
0.0
 40
0
 41
0
  0
VERTEX
  8
0
 10
1.10042
 20
10.6614
 30
0.0
 40
0
 41
0
  0
VERTEX
  8
0
 10
1.10042
 20
10.748
 30
0.0
 40
0
 41
0
  0
SEQEND
 8
0
  0
POLYLINE
  8
0
 62
     0
 66
     1
 10
0
 20
0
 30
0.0
 70
     1
 40
0
 41
0
  0
VERTEX
  8
0
 10
1.0504
 20
10.748
 30
0.0
 40
0
 41
0
  0
VERTEX
  8
0
 10
1.07373
 20
10.748
 30
0.0
 40
0
 41
0
  0
VERTEX
  8
0
 10
1.07373
 20
10.6614
 30
0.0
 40
0
 41
0
  0
VERTEX
  8
0
 10
1.0504
 20
10.6614
 30
0.0
 40
0
 41
0
  0
VERTEX
  8
0
 10
1.0504
 20
10.748
 30
0.0
 40
0
 41
0
  0
SEQEND
 8
0
  0
POLYLINE
  8
0
 62
     0
 66
     1
 10
0
 20
0
 30
0.0
 70
     1
 40
0
 41
0
  0
VERTEX
  8
0
 10
1.00043
 20
10.748
 30
0.0
 40
0
 41
0
  0
VERTEX
  8
0
 10
1.02376
 20
10.748
 30
0.0
 40
0
 41
0
  0
VERTEX
  8
0
 10
1.02376
 20
10.6614
 30
0.0
 40
0
 41
0
  0
VERTEX
  8
0
 10
1.00043
 20
10.6614
 30
0.0
 40
0
 41
0
  0
VERTEX
  8
0
 10
1.00043
 20
10.748
 30
0.0
 40
0
 41
0
  0
SEQEND
 8
0
  0
POLYLINE
  8
0
 62
     0
 66
     1
 10
0
 20
0
 30
0.0
 70
     1
 40
0
 41
0
  0
VERTEX
  8
0
 10
0.950413
 20
10.748
 30
0.0
 40
0
 41
0
  0
VERTEX
  8
0
 10
0.973742
 20
10.748
 30
0.0
 40
0
 41
0
  0
VERTEX
  8
0
 10
0.973742
 20
10.6614
 30
0.0
 40
0
 41
0
  0
VERTEX
  8
0
 10
0.950413
 20
10.6614
 30
0.0
 40
0
 41
0
  0
VERTEX
  8
0
 10
0.950413
 20
10.748
 30
0.0
 40
0
 41
0
  0
SEQEND
 8
0
  0
POLYLINE
  8
0
 62
     0
 66
     1
 10
0
 20
0
 30
0.0
 70
     1
 40
0
 41
0
  0
VERTEX
  8
0
 10
0.960394
 20
9.14806
 30
0.0
 40
0
 41
0
  0
VERTEX
  8
0
 10
0.993761
 20
9.14806
 30
0.0
 40
0
 41
0
  0
VERTEX
  8
0
 10
0.993761
 20
9.10807
 30
0.0
 40
0
 41
0
  0
VERTEX
  8
0
 10
0.960394
 20
9.10807
 30
0.0
 40
0
 41
0
  0
VERTEX
  8
0
 10
0.960394
 20
9.14806
 30
0.0
 40
0
 41
0
  0
SEQEND
 8
0
  0
POLYLINE
  8
0
 62
     0
 66
     1
 10
0
 20
0
 30
0.0
 70
     1
 40
0
 41
0
  0
VERTEX
  8
0
 10
0.890408
 20
9.14806
 30
0.0
 40
0
 41
0
  0
VERTEX
  8
0
 10
0.923774
 20
9.14806
 30
0.0
 40
0
 41
0
  0
VERTEX
  8
0
 10
0.923774
 20
9.10807
 30
0.0
 40
0
 41
0
  0
VERTEX
  8
0
 10
0.890408
 20
9.10807
 30
0.0
 40
0
 41
0
  0
VERTEX
  8
0
 10
0.890408
 20
9.14806
 30
0.0
 40
0
 41
0
  0
SEQEND
 8
0
  0
POLYLINE
  8
0
 62
     0
 66
     1
 10
0
 20
0
 30
0.0
 70
     1
 40
0
 41
0
  0
VERTEX
  8
0
 10
0.890408
 20
9.21474
 30
0.0
 40
0
 41
0
  0
VERTEX
  8
0
 10
0.923774
 20
9.21474
 30
0.0
 40
0
 41
0
  0
VERTEX
  8
0
 10
0.923774
 20
9.17469
 30
0.0
 40
0
 41
0
  0
VERTEX
  8
0
 10
0.890408
 20
9.17469
 30
0.0
 40
0
 41
0
  0
VERTEX
  8
0
 10
0.890408
 20
9.21474
 30
0.0
 40
0
 41
0
  0
SEQEND
 8
0
  0
POLYLINE
  8
0
 62
     0
 66
     1
 10
0
 20
0
 30
0.0
 70
     1
 40
0
 41
0
  0
VERTEX
  8
0
 10
0.960394
 20
9.21474
 30
0.0
 40
0
 41
0
  0
VERTEX
  8
0
 10
0.993761
 20
9.21474
 30
0.0
 40
0
 41
0
  0
VERTEX
  8
0
 10
0.993761
 20
9.17469
 30
0.0
 40
0
 41
0
  0
VERTEX
  8
0
 10
0.960394
 20
9.17469
 30
0.0
 40
0
 41
0
  0
VERTEX
  8
0
 10
0.960394
 20
9.21474
 30
0.0
 40
0
 41
0
  0
SEQEND
 8
0
  0
POLYLINE
  8
0
 62
     0
 66
     1
 10
0
 20
0
 30
0.0
 70
     1
 40
0
 41
0
  0
VERTEX
  8
0
 10
0.960394
 20
9.27806
 30
0.0
 40
0
 41
0
  0
VERTEX
  8
0
 10
0.993761
 20
9.27806
 30
0.0
 40
0
 41
0
  0
VERTEX
  8
0
 10
0.993761
 20
9.23807
 30
0.0
 40
0
 41
0
  0
VERTEX
  8
0
 10
0.960394
 20
9.23807
 30
0.0
 40
0
 41
0
  0
VERTEX
  8
0
 10
0.960394
 20
9.27806
 30
0.0
 40
0
 41
0
  0
SEQEND
 8
0
  0
POLYLINE
  8
0
 62
     0
 66
     1
 10
0
 20
0
 30
0.0
 70
     1
 40
0
 41
0
  0
VERTEX
  8
0
 10
0.890408
 20
9.27806
 30
0.0
 40
0
 41
0
  0
VERTEX
  8
0
 10
0.923774
 20
9.27806
 30
0.0
 40
0
 41
0
  0
VERTEX
  8
0
 10
0.923774
 20
9.23807
 30
0.0
 40
0
 41
0
  0
VERTEX
  8
0
 10
0.890408
 20
9.23807
 30
0.0
 40
0
 41
0
  0
VERTEX
  8
0
 10
0.890408
 20
9.27806
 30
0.0
 40
0
 41
0
  0
SEQEND
 8
0
  0
POLYLINE
  8
0
 62
     0
 66
     1
 10
0
 20
0
 30
0.0
 70
     1
 40
0
 41
0
  0
VERTEX
  8
0
 10
0.890408
 20
9.34472
 30
0.0
 40
0
 41
0
  0
VERTEX
  8
0
 10
0.923774
 20
9.34472
 30
0.0
 40
0
 41
0
  0
VERTEX
  8
0
 10
0.923774
 20
9.30474
 30
0.0
 40
0
 41
0
  0
VERTEX
  8
0
 10
0.890408
 20
9.30474
 30
0.0
 40
0
 41
0
  0
VERTEX
  8
0
 10
0.890408
 20
9.34472
 30
0.0
 40
0
 41
0
  0
SEQEND
 8
0
  0
POLYLINE
  8
0
 62
     0
 66
     1
 10
0
 20
0
 30
0.0
 70
     1
 40
0
 41
0
  0
VERTEX
  8
0
 10
0.960394
 20
9.34472
 30
0.0
 40
0
 41
0
  0
VERTEX
  8
0
 10
0.993761
 20
9.34472
 30
0.0
 40
0
 41
0
  0
VERTEX
  8
0
 10
0.993761
 20
9.30474
 30
0.0
 40
0
 41
0
  0
VERTEX
  8
0
 10
0.960394
 20
9.30474
 30
0.0
 40
0
 41
0
  0
VERTEX
  8
0
 10
0.960394
 20
9.34472
 30
0.0
 40
0
 41
0
  0
SEQEND
 8
0
  0
POLYLINE
  8
0
 62
     0
 66
     1
 10
0
 20
0
 30
0.0
 70
     1
 40
0
 41
0
  0
VERTEX
  8
0
 10
1.50375
 20
9.71804
 30
0.0
 40
0
 41
0
  0
VERTEX
  8
0
 10
1.54042
 20
9.71804
 30
0.0
 40
0
 41
0
  0
VERTEX
  8
0
 10
1.54042
 20
9.67806
 30
0.0
 40
0
 41
0
  0
VERTEX
  8
0
 10
1.50375
 20
9.67806
 30
0.0
 40
0
 41
0
  0
VERTEX
  8
0
 10
1.50375
 20
9.71804
 30
0.0
 40
0
 41
0
  0
SEQEND
 8
0
  0
POLYLINE
  8
0
 62
     0
 66
     1
 10
0
 20
0
 30
0.0
 70
     1
 40
0
 41
0
  0
VERTEX
  8
0
 10
1.50375
 20
9.78472
 30
0.0
 40
0
 41
0
  0
VERTEX
  8
0
 10
1.54042
 20
9.78472
 30
0.0
 40
0
 41
0
  0
VERTEX
  8
0
 10
1.54042
 20
9.74474
 30
0.0
 40
0
 41
0
  0
VERTEX
  8
0
 10
1.50375
 20
9.74474
 30
0.0
 40
0
 41
0
  0
VERTEX
  8
0
 10
1.50375
 20
9.78472
 30
0.0
 40
0
 41
0
  0
SEQEND
 8
0
  0
POLYLINE
  8
0
 62
     0
 66
     1
 10
0
 20
0
 30
0.0
 70
     1
 40
0
 41
0
  0
VERTEX
  8
0
 10
1.7404
 20
9.99804
 30
0.0
 40
0
 41
0
  0
VERTEX
  8
0
 10
1.77376
 20
9.99804
 30
0.0
 40
0
 41
0
  0
VERTEX
  8
0
 10
1.77376
 20
9.95806
 30
0.0
 40
0
 41
0
  0
VERTEX
  8
0
 10
1.7404
 20
9.95806
 30
0.0
 40
0
 41
0
  0
VERTEX
  8
0
 10
1.7404
 20
9.99804
 30
0.0
 40
0
 41
0
  0
SEQEND
 8
0
  0
POLYLINE
  8
0
 62
     0
 66
     1
 10
0
 20
0
 30
0.0
 70
     1
 40
0
 41
0
  0
VERTEX
  8
0
 10
1.68039
 20
9.99804
 30
0.0
 40
0
 41
0
  0
VERTEX
  8
0
 10
1.71376
 20
9.99804
 30
0.0
 40
0
 41
0
  0
VERTEX
  8
0
 10
1.71376
 20
9.95806
 30
0.0
 40
0
 41
0
  0
VERTEX
  8
0
 10
1.68039
 20
9.95806
 30
0.0
 40
0
 41
0
  0
VERTEX
  8
0
 10
1.68039
 20
9.99804
 30
0.0
 40
0
 41
0
  0
SEQEND
 8
0
  0
POLYLINE
  8
0
 62
     0
 66
     1
 10
0
 20
0
 30
0.0
 70
     1
 40
0
 41
0
  0
VERTEX
  8
0
 10
1.68039
 20
10.0647
 30
0.0
 40
0
 41
0
  0
VERTEX
  8
0
 10
1.71376
 20
10.0647
 30
0.0
 40
0
 41
0
  0
VERTEX
  8
0
 10
1.71376
 20
10.0247
 30
0.0
 40
0
 41
0
  0
VERTEX
  8
0
 10
1.68039
 20
10.0247
 30
0.0
 40
0
 41
0
  0
VERTEX
  8
0
 10
1.68039
 20
10.0647
 30
0.0
 40
0
 41
0
  0
SEQEND
 8
0
  0
POLYLINE
  8
0
 62
     0
 66
     1
 10
0
 20
0
 30
0.0
 70
     1
 40
0
 41
0
  0
VERTEX
  8
0
 10
1.7404
 20
10.0647
 30
0.0
 40
0
 41
0
  0
VERTEX
  8
0
 10
1.77376
 20
10.0647
 30
0.0
 40
0
 41
0
  0
VERTEX
  8
0
 10
1.77376
 20
10.0247
 30
0.0
 40
0
 41
0
  0
VERTEX
  8
0
 10
1.7404
 20
10.0247
 30
0.0
 40
0
 41
0
  0
VERTEX
  8
0
 10
1.7404
 20
10.0647
 30
0.0
 40
0
 41
0
  0
SEQEND
 8
0
  0
POLYLINE
  8
0
 62
     0
 66
     1
 10
0
 20
0
 30
0.0
 70
     1
 40
0
 41
0
  0
VERTEX
  8
0
 10
1.84044
 20
10.248
 30
0.0
 40
0
 41
0
  0
VERTEX
  8
0
 10
1.87375
 20
10.248
 30
0.0
 40
0
 41
0
  0
VERTEX
  8
0
 10
1.87375
 20
10.2081
 30
0.0
 40
0
 41
0
  0
VERTEX
  8
0
 10
1.84044
 20
10.2081
 30
0.0
 40
0
 41
0
  0
VERTEX
  8
0
 10
1.84044
 20
10.248
 30
0.0
 40
0
 41
0
  0
SEQEND
 8
0
  0
POLYLINE
  8
0
 62
     0
 66
     1
 10
0
 20
0
 30
0.0
 70
     1
 40
0
 41
0
  0
VERTEX
  8
0
 10
1.84044
 20
10.3147
 30
0.0
 40
0
 41
0
  0
VERTEX
  8
0
 10
1.87375
 20
10.3147
 30
0.0
 40
0
 41
0
  0
VERTEX
  8
0
 10
1.87375
 20
10.2747
 30
0.0
 40
0
 41
0
  0
VERTEX
  8
0
 10
1.84044
 20
10.2747
 30
0.0
 40
0
 41
0
  0
VERTEX
  8
0
 10
1.84044
 20
10.3147
 30
0.0
 40
0
 41
0
  0
SEQEND
 8
0
  0
POLYLINE
  8
0
 62
     0
 66
     1
 10
0
 20
0
 30
0.0
 70
     1
 40
0
 41
0
  0
VERTEX
  8
0
 10
1.47043
 20
10.6547
 30
0.0
 40
0
 41
0
  0
VERTEX
  8
0
 10
1.50375
 20
10.6547
 30
0.0
 40
0
 41
0
  0
VERTEX
  8
0
 10
1.50375
 20
10.6148
 30
0.0
 40
0
 41
0
  0
VERTEX
  8
0
 10
1.47043
 20
10.6148
 30
0.0
 40
0
 41
0
  0
VERTEX
  8
0
 10
1.47043
 20
10.6547
 30
0.0
 40
0
 41
0
  0
SEQEND
 8
0
  0
POLYLINE
  8
0
 62
     0
 66
     1
 10
0
 20
0
 30
0.0
 70
     1
 40
0
 41
0
  0
VERTEX
  8
0
 10
1.47043
 20
10.5881
 30
0.0
 40
0
 41
0
  0
VERTEX
  8
0
 10
1.50375
 20
10.5881
 30
0.0
 40
0
 41
0
  0
VERTEX
  8
0
 10
1.50375
 20
10.5481
 30
0.0
 40
0
 41
0
  0
VERTEX
  8
0
 10
1.47043
 20
10.5481
 30
0.0
 40
0
 41
0
  0
VERTEX
  8
0
 10
1.47043
 20
10.5881
 30
0.0
 40
0
 41
0
  0
SEQEND
 8
0
  0
POLYLINE
  8
0
 62
     0
 66
     1
 10
0
 20
0
 30
0.0
 70
     1
 40
0
 41
0
  0
VERTEX
  8
0
 10
0.930393
 20
10.2381
 30
0.0
 40
0
 41
0
  0
VERTEX
  8
0
 10
0.963758
 20
10.2381
 30
0.0
 40
0
 41
0
  0
VERTEX
  8
0
 10
0.963758
 20
10.1981
 30
0.0
 40
0
 41
0
  0
VERTEX
  8
0
 10
0.930393
 20
10.1981
 30
0.0
 40
0
 41
0
  0
VERTEX
  8
0
 10
0.930393
 20
10.2381
 30
0.0
 40
0
 41
0
  0
SEQEND
 8
0
  0
POLYLINE
  8
0
 62
     0
 66
     1
 10
0
 20
0
 30
0.0
 70
     1
 40
0
 41
0
  0
VERTEX
  8
0
 10
0.930393
 20
10.3047
 30
0.0
 40
0
 41
0
  0
VERTEX
  8
0
 10
0.963758
 20
10.3047
 30
0.0
 40
0
 41
0
  0
VERTEX
  8
0
 10
0.963758
 20
10.2647
 30
0.0
 40
0
 41
0
  0
VERTEX
  8
0
 10
0.930393
 20
10.2647
 30
0.0
 40
0
 41
0
  0
VERTEX
  8
0
 10
0.930393
 20
10.3047
 30
0.0
 40
0
 41
0
  0
SEQEND
 8
0
  0
POLYLINE
  8
0
 62
     0
 66
     1
 10
0
 20
0
 30
0.0
 70
     1
 40
0
 41
0
  0
VERTEX
  8
0
 10
0.880425
 20
10.5881
 30
0.0
 40
0
 41
0
  0
VERTEX
  8
0
 10
0.913738
 20
10.5881
 30
0.0
 40
0
 41
0
  0
VERTEX
  8
0
 10
0.913738
 20
10.5481
 30
0.0
 40
0
 41
0
  0
VERTEX
  8
0
 10
0.880425
 20
10.5481
 30
0.0
 40
0
 41
0
  0
VERTEX
  8
0
 10
0.880425
 20
10.5881
 30
0.0
 40
0
 41
0
  0
SEQEND
 8
0
  0
POLYLINE
  8
0
 62
     0
 66
     1
 10
0
 20
0
 30
0.0
 70
     1
 40
0
 41
0
  0
VERTEX
  8
0
 10
0.880425
 20
10.6547
 30
0.0
 40
0
 41
0
  0
VERTEX
  8
0
 10
0.913738
 20
10.6547
 30
0.0
 40
0
 41
0
  0
VERTEX
  8
0
 10
0.913738
 20
10.6148
 30
0.0
 40
0
 41
0
  0
VERTEX
  8
0
 10
0.880425
 20
10.6148
 30
0.0
 40
0
 41
0
  0
VERTEX
  8
0
 10
0.880425
 20
10.6547
 30
0.0
 40
0
 41
0
  0
SEQEND
 8
0
  0
POLYLINE
  8
0
 62
     0
 66
     1
 10
0
 20
0
 30
0.0
 70
     1
 40
0
 41
0
  0
VERTEX
  8
0
 10
0.283746
 20
10.7681
 30
0.0
 40
0
 41
0
  0
VERTEX
  8
0
 10
0.323731
 20
10.7681
 30
0.0
 40
0
 41
0
  0
VERTEX
  8
0
 10
0.323731
 20
10.7347
 30
0.0
 40
0
 41
0
  0
VERTEX
  8
0
 10
0.283746
 20
10.7347
 30
0.0
 40
0
 41
0
  0
VERTEX
  8
0
 10
0.283746
 20
10.7681
 30
0.0
 40
0
 41
0
  0
SEQEND
 8
0
  0
POLYLINE
  8
0
 62
     0
 66
     1
 10
0
 20
0
 30
0.0
 70
     1
 40
0
 41
0
  0
VERTEX
  8
0
 10
0.350424
 20
10.7681
 30
0.0
 40
0
 41
0
  0
VERTEX
  8
0
 10
0.390408
 20
10.7681
 30
0.0
 40
0
 41
0
  0
VERTEX
  8
0
 10
0.390408
 20
10.7347
 30
0.0
 40
0
 41
0
  0
VERTEX
  8
0
 10
0.350424
 20
10.7347
 30
0.0
 40
0
 41
0
  0
VERTEX
  8
0
 10
0.350424
 20
10.7681
 30
0.0
 40
0
 41
0
  0
SEQEND
 8
0
  0
POLYLINE
  8
0
 62
     0
 66
     1
 10
0
 20
0
 30
0.0
 70
     1
 40
0
 41
0
  0
VERTEX
  8
0
 10
0.423774
 20
10.7681
 30
0.0
 40
0
 41
0
  0
VERTEX
  8
0
 10
0.463758
 20
10.7681
 30
0.0
 40
0
 41
0
  0
VERTEX
  8
0
 10
0.463758
 20
10.7347
 30
0.0
 40
0
 41
0
  0
VERTEX
  8
0
 10
0.423774
 20
10.7347
 30
0.0
 40
0
 41
0
  0
VERTEX
  8
0
 10
0.423774
 20
10.7681
 30
0.0
 40
0
 41
0
  0
SEQEND
 8
0
  0
POLYLINE
  8
0
 62
     0
 66
     1
 10
0
 20
0
 30
0.0
 70
     1
 40
0
 41
0
  0
VERTEX
  8
0
 10
0.490397
 20
10.7681
 30
0.0
 40
0
 41
0
  0
VERTEX
  8
0
 10
0.530436
 20
10.7681
 30
0.0
 40
0
 41
0
  0
VERTEX
  8
0
 10
0.530436
 20
10.7347
 30
0.0
 40
0
 41
0
  0
VERTEX
  8
0
 10
0.490397
 20
10.7347
 30
0.0
 40
0
 41
0
  0
VERTEX
  8
0
 10
0.490397
 20
10.7681
 30
0.0
 40
0
 41
0
  0
SEQEND
 8
0
  0
POLYLINE
  8
0
 62
     0
 66
     1
 10
0
 20
0
 30
0.0
 70
     1
 40
0
 41
0
  0
VERTEX
  8
0
 10
0.633735
 20
10.4481
 30
0.0
 40
0
 41
0
  0
VERTEX
  8
0
 10
0.673774
 20
10.4481
 30
0.0
 40
0
 41
0
  0
VERTEX
  8
0
 10
0.673774
 20
10.4147
 30
0.0
 40
0
 41
0
  0
VERTEX
  8
0
 10
0.633735
 20
10.4147
 30
0.0
 40
0
 41
0
  0
VERTEX
  8
0
 10
0.633735
 20
10.4481
 30
0.0
 40
0
 41
0
  0
SEQEND
 8
0
  0
POLYLINE
  8
0
 62
     0
 66
     1
 10
0
 20
0
 30
0.0
 70
     1
 40
0
 41
0
  0
VERTEX
  8
0
 10
0.700412
 20
10.4481
 30
0.0
 40
0
 41
0
  0
VERTEX
  8
0
 10
0.740397
 20
10.4481
 30
0.0
 40
0
 41
0
  0
VERTEX
  8
0
 10
0.740397
 20
10.4147
 30
0.0
 40
0
 41
0
  0
VERTEX
  8
0
 10
0.700412
 20
10.4147
 30
0.0
 40
0
 41
0
  0
VERTEX
  8
0
 10
0.700412
 20
10.4481
 30
0.0
 40
0
 41
0
  0
SEQEND
 8
0
  0
POLYLINE
  8
0
 62
     0
 66
     1
 10
0
 20
0
 30
0.0
 70
     1
 40
0
 41
0
  0
VERTEX
  8
0
 10
0.963758
 20
10.3581
 30
0.0
 40
0
 41
0
  0
VERTEX
  8
0
 10
1.00374
 20
10.3581
 30
0.0
 40
0
 41
0
  0
VERTEX
  8
0
 10
1.00374
 20
10.3247
 30
0.0
 40
0
 41
0
  0
VERTEX
  8
0
 10
0.963758
 20
10.3247
 30
0.0
 40
0
 41
0
  0
VERTEX
  8
0
 10
0.963758
 20
10.3581
 30
0.0
 40
0
 41
0
  0
SEQEND
 8
0
  0
POLYLINE
  8
0
 62
     0
 66
     1
 10
0
 20
0
 30
0.0
 70
     1
 40
0
 41
0
  0
VERTEX
  8
0
 10
1.03044
 20
10.3581
 30
0.0
 40
0
 41
0
  0
VERTEX
  8
0
 10
1.07042
 20
10.3581
 30
0.0
 40
0
 41
0
  0
VERTEX
  8
0
 10
1.07042
 20
10.3247
 30
0.0
 40
0
 41
0
  0
VERTEX
  8
0
 10
1.03044
 20
10.3247
 30
0.0
 40
0
 41
0
  0
VERTEX
  8
0
 10
1.03044
 20
10.3581
 30
0.0
 40
0
 41
0
  0
SEQEND
 8
0
  0
POLYLINE
  8
0
 62
     0
 66
     1
 10
0
 20
0
 30
0.0
 70
     1
 40
0
 41
0
  0
VERTEX
  8
0
 10
1.12375
 20
10.3281
 30
0.0
 40
0
 41
0
  0
VERTEX
  8
0
 10
1.16374
 20
10.3281
 30
0.0
 40
0
 41
0
  0
VERTEX
  8
0
 10
1.16374
 20
10.2947
 30
0.0
 40
0
 41
0
  0
VERTEX
  8
0
 10
1.12375
 20
10.2947
 30
0.0
 40
0
 41
0
  0
VERTEX
  8
0
 10
1.12375
 20
10.3281
 30
0.0
 40
0
 41
0
  0
SEQEND
 8
0
  0
POLYLINE
  8
0
 62
     0
 66
     1
 10
0
 20
0
 30
0.0
 70
     1
 40
0
 41
0
  0
VERTEX
  8
0
 10
1.19043
 20
10.3281
 30
0.0
 40
0
 41
0
  0
VERTEX
  8
0
 10
1.23041
 20
10.3281
 30
0.0
 40
0
 41
0
  0
VERTEX
  8
0
 10
1.23041
 20
10.2947
 30
0.0
 40
0
 41
0
  0
VERTEX
  8
0
 10
1.19043
 20
10.2947
 30
0.0
 40
0
 41
0
  0
VERTEX
  8
0
 10
1.19043
 20
10.3281
 30
0.0
 40
0
 41
0
  0
SEQEND
 8
0
  0
POLYLINE
  8
0
 62
     0
 66
     1
 10
0
 20
0
 30
0.0
 70
     1
 40
0
 41
0
  0
VERTEX
  8
0
 10
1.66043
 20
9.78142
 30
0.0
 40
0
 41
0
  0
VERTEX
  8
0
 10
1.70042
 20
9.78142
 30
0.0
 40
0
 41
0
  0
VERTEX
  8
0
 10
1.70042
 20
9.74474
 30
0.0
 40
0
 41
0
  0
VERTEX
  8
0
 10
1.66043
 20
9.74474
 30
0.0
 40
0
 41
0
  0
VERTEX
  8
0
 10
1.66043
 20
9.78142
 30
0.0
 40
0
 41
0
  0
SEQEND
 8
0
  0
POLYLINE
  8
0
 62
     0
 66
     1
 10
0
 20
0
 30
0.0
 70
     1
 40
0
 41
0
  0
VERTEX
  8
0
 10
1.59375
 20
9.78142
 30
0.0
 40
0
 41
0
  0
VERTEX
  8
0
 10
1.63374
 20
9.78142
 30
0.0
 40
0
 41
0
  0
VERTEX
  8
0
 10
1.63374
 20
9.74474
 30
0.0
 40
0
 41
0
  0
VERTEX
  8
0
 10
1.59375
 20
9.74474
 30
0.0
 40
0
 41
0
  0
VERTEX
  8
0
 10
1.59375
 20
9.78142
 30
0.0
 40
0
 41
0
  0
SEQEND
 8
0
  0
POLYLINE
  8
0
 62
     0
 66
     1
 10
0
 20
0
 30
0.0
 70
     1
 40
0
 41
0
  0
VERTEX
  8
0
 10
1.59375
 20
9.84136
 30
0.0
 40
0
 41
0
  0
VERTEX
  8
0
 10
1.63374
 20
9.84136
 30
0.0
 40
0
 41
0
  0
VERTEX
  8
0
 10
1.63374
 20
9.80474
 30
0.0
 40
0
 41
0
  0
VERTEX
  8
0
 10
1.59375
 20
9.80474
 30
0.0
 40
0
 41
0
  0
VERTEX
  8
0
 10
1.59375
 20
9.84136
 30
0.0
 40
0
 41
0
  0
SEQEND
 8
0
  0
POLYLINE
  8
0
 62
     0
 66
     1
 10
0
 20
0
 30
0.0
 70
     1
 40
0
 41
0
  0
VERTEX
  8
0
 10
1.66043
 20
9.84136
 30
0.0
 40
0
 41
0
  0
VERTEX
  8
0
 10
1.70042
 20
9.84136
 30
0.0
 40
0
 41
0
  0
VERTEX
  8
0
 10
1.70042
 20
9.80474
 30
0.0
 40
0
 41
0
  0
VERTEX
  8
0
 10
1.66043
 20
9.80474
 30
0.0
 40
0
 41
0
  0
VERTEX
  8
0
 10
1.66043
 20
9.84136
 30
0.0
 40
0
 41
0
  0
SEQEND
 8
0
  0
POLYLINE
  8
0
 62
     0
 66
     1
 10
0
 20
0
 30
0.0
 70
     1
 40
0
 41
0
  0
VERTEX
  8
0
 10
1.78375
 20
9.81472
 30
0.0
 40
0
 41
0
  0
VERTEX
  8
0
 10
1.82374
 20
9.81472
 30
0.0
 40
0
 41
0
  0
VERTEX
  8
0
 10
1.82374
 20
9.77806
 30
0.0
 40
0
 41
0
  0
VERTEX
  8
0
 10
1.78375
 20
9.77806
 30
0.0
 40
0
 41
0
  0
VERTEX
  8
0
 10
1.78375
 20
9.81472
 30
0.0
 40
0
 41
0
  0
SEQEND
 8
0
  0
POLYLINE
  8
0
 62
     0
 66
     1
 10
0
 20
0
 30
0.0
 70
     1
 40
0
 41
0
  0
VERTEX
  8
0
 10
1.85042
 20
9.81472
 30
0.0
 40
0
 41
0
  0
VERTEX
  8
0
 10
1.8904
 20
9.81472
 30
0.0
 40
0
 41
0
  0
VERTEX
  8
0
 10
1.8904
 20
9.77806
 30
0.0
 40
0
 41
0
  0
VERTEX
  8
0
 10
1.85042
 20
9.77806
 30
0.0
 40
0
 41
0
  0
VERTEX
  8
0
 10
1.85042
 20
9.81472
 30
0.0
 40
0
 41
0
  0
SEQEND
 8
0
  0
POLYLINE
  8
0
 62
     0
 66
     1
 10
0
 20
0
 30
0.0
 70
     1
 40
0
 41
0
  0
VERTEX
  8
0
 10
1.85042
 20
9.7214
 30
0.0
 40
0
 41
0
  0
VERTEX
  8
0
 10
1.8904
 20
9.7214
 30
0.0
 40
0
 41
0
  0
VERTEX
  8
0
 10
1.8904
 20
9.68474
 30
0.0
 40
0
 41
0
  0
VERTEX
  8
0
 10
1.85042
 20
9.68474
 30
0.0
 40
0
 41
0
  0
VERTEX
  8
0
 10
1.85042
 20
9.7214
 30
0.0
 40
0
 41
0
  0
SEQEND
 8
0
  0
POLYLINE
  8
0
 62
     0
 66
     1
 10
0
 20
0
 30
0.0
 70
     1
 40
0
 41
0
  0
VERTEX
  8
0
 10
1.78375
 20
9.7214
 30
0.0
 40
0
 41
0
  0
VERTEX
  8
0
 10
1.82374
 20
9.7214
 30
0.0
 40
0
 41
0
  0
VERTEX
  8
0
 10
1.82374
 20
9.68474
 30
0.0
 40
0
 41
0
  0
VERTEX
  8
0
 10
1.78375
 20
9.68474
 30
0.0
 40
0
 41
0
  0
VERTEX
  8
0
 10
1.78375
 20
9.7214
 30
0.0
 40
0
 41
0
  0
SEQEND
 8
0
  0
POLYLINE
  8
0
 62
     0
 66
     1
 10
0
 20
0
 30
0.0
 70
     1
 40
0
 41
0
  0
VERTEX
  8
0
 10
1.34044
 20
9.07807
 30
0.0
 40
0
 41
0
  0
VERTEX
  8
0
 10
1.38043
 20
9.07807
 30
0.0
 40
0
 41
0
  0
VERTEX
  8
0
 10
1.38043
 20
9.04471
 30
0.0
 40
0
 41
0
  0
VERTEX
  8
0
 10
1.34044
 20
9.04471
 30
0.0
 40
0
 41
0
  0
VERTEX
  8
0
 10
1.34044
 20
9.07807
 30
0.0
 40
0
 41
0
  0
SEQEND
 8
0
  0
POLYLINE
  8
0
 62
     0
 66
     1
 10
0
 20
0
 30
0.0
 70
     1
 40
0
 41
0
  0
VERTEX
  8
0
 10
1.27376
 20
9.07807
 30
0.0
 40
0
 41
0
  0
VERTEX
  8
0
 10
1.31375
 20
9.07807
 30
0.0
 40
0
 41
0
  0
VERTEX
  8
0
 10
1.31375
 20
9.04471
 30
0.0
 40
0
 41
0
  0
VERTEX
  8
0
 10
1.27376
 20
9.04471
 30
0.0
 40
0
 41
0
  0
VERTEX
  8
0
 10
1.27376
 20
9.07807
 30
0.0
 40
0
 41
0
  0
SEQEND
 8
0
  0
POLYLINE
  8
0
 62
     0
 66
     1
 10
0
 20
0
 30
0.0
 70
     1
 40
0
 41
0
  0
VERTEX
  8
0
 10
1.18039
 20
9.37804
 30
0.0
 40
0
 41
0
  0
VERTEX
  8
0
 10
1.22043
 20
9.37804
 30
0.0
 40
0
 41
0
  0
VERTEX
  8
0
 10
1.22043
 20
9.34472
 30
0.0
 40
0
 41
0
  0
VERTEX
  8
0
 10
1.18039
 20
9.34472
 30
0.0
 40
0
 41
0
  0
VERTEX
  8
0
 10
1.18039
 20
9.37804
 30
0.0
 40
0
 41
0
  0
SEQEND
 8
0
  0
POLYLINE
  8
0
 62
     0
 66
     1
 10
0
 20
0
 30
0.0
 70
     1
 40
0
 41
0
  0
VERTEX
  8
0
 10
1.11377
 20
9.37804
 30
0.0
 40
0
 41
0
  0
VERTEX
  8
0
 10
1.15375
 20
9.37804
 30
0.0
 40
0
 41
0
  0
VERTEX
  8
0
 10
1.15375
 20
9.34472
 30
0.0
 40
0
 41
0
  0
VERTEX
  8
0
 10
1.11377
 20
9.34472
 30
0.0
 40
0
 41
0
  0
VERTEX
  8
0
 10
1.11377
 20
9.37804
 30
0.0
 40
0
 41
0
  0
SEQEND
 8
0
  0
POLYLINE
  8
0
 62
     0
 66
     1
 10
0
 20
0
 30
0.0
 70
     1
 40
0
 41
0
  0
VERTEX
  8
0
 10
0.853733
 20
9.53803
 30
0.0
 40
0
 41
0
  0
VERTEX
  8
0
 10
0.893772
 20
9.53803
 30
0.0
 40
0
 41
0
  0
VERTEX
  8
0
 10
0.893772
 20
9.50472
 30
0.0
 40
0
 41
0
  0
VERTEX
  8
0
 10
0.853733
 20
9.50472
 30
0.0
 40
0
 41
0
  0
VERTEX
  8
0
 10
0.853733
 20
9.53803
 30
0.0
 40
0
 41
0
  0
SEQEND
 8
0
  0
POLYLINE
  8
0
 62
     0
 66
     1
 10
0
 20
0
 30
0.0
 70
     1
 40
0
 41
0
  0
VERTEX
  8
0
 10
0.92041
 20
9.53803
 30
0.0
 40
0
 41
0
  0
VERTEX
  8
0
 10
0.960394
 20
9.53803
 30
0.0
 40
0
 41
0
  0
VERTEX
  8
0
 10
0.960394
 20
9.50472
 30
0.0
 40
0
 41
0
  0
VERTEX
  8
0
 10
0.92041
 20
9.50472
 30
0.0
 40
0
 41
0
  0
VERTEX
  8
0
 10
0.92041
 20
9.53803
 30
0.0
 40
0
 41
0
  0
SEQEND
 8
0
  0
POLYLINE
  8
0
 62
     0
 66
     1
 10
0
 20
0
 30
0.0
 70
     1
 40
0
 41
0
  0
VERTEX
  8
0
 10
0.92041
 20
9.76807
 30
0.0
 40
0
 41
0
  0
VERTEX
  8
0
 10
0.960394
 20
9.76807
 30
0.0
 40
0
 41
0
  0
VERTEX
  8
0
 10
0.960394
 20
9.73469
 30
0.0
 40
0
 41
0
  0
VERTEX
  8
0
 10
0.92041
 20
9.73469
 30
0.0
 40
0
 41
0
  0
VERTEX
  8
0
 10
0.92041
 20
9.76807
 30
0.0
 40
0
 41
0
  0
SEQEND
 8
0
  0
POLYLINE
  8
0
 62
     0
 66
     1
 10
0
 20
0
 30
0.0
 70
     1
 40
0
 41
0
  0
VERTEX
  8
0
 10
0.853733
 20
9.76807
 30
0.0
 40
0
 41
0
  0
VERTEX
  8
0
 10
0.893772
 20
9.76807
 30
0.0
 40
0
 41
0
  0
VERTEX
  8
0
 10
0.893772
 20
9.73469
 30
0.0
 40
0
 41
0
  0
VERTEX
  8
0
 10
0.853733
 20
9.73469
 30
0.0
 40
0
 41
0
  0
VERTEX
  8
0
 10
0.853733
 20
9.76807
 30
0.0
 40
0
 41
0
  0
SEQEND
 8
0
  0
POLYLINE
  8
0
 62
     0
 66
     1
 10
0
 20
0
 30
0.0
 70
     1
 40
0
 41
0
  0
VERTEX
  8
0
 10
0.800401
 20
9.70469
 30
0.0
 40
0
 41
0
  0
VERTEX
  8
0
 10
0.870443
 20
9.70469
 30
0.0
 40
0
 41
0
  0
VERTEX
  8
0
 10
0.870443
 20
9.66808
 30
0.0
 40
0
 41
0
  0
VERTEX
  8
0
 10
0.800401
 20
9.66808
 30
0.0
 40
0
 41
0
  0
VERTEX
  8
0
 10
0.800401
 20
9.70469
 30
0.0
 40
0
 41
0
  0
SEQEND
 8
0
  0
POLYLINE
  8
0
 62
     0
 66
     1
 10
0
 20
0
 30
0.0
 70
     1
 40
0
 41
0
  0
VERTEX
  8
0
 10
0.800401
 20
9.61475
 30
0.0
 40
0
 41
0
  0
VERTEX
  8
0
 10
0.870443
 20
9.61475
 30
0.0
 40
0
 41
0
  0
VERTEX
  8
0
 10
0.870443
 20
9.57471
 30
0.0
 40
0
 41
0
  0
VERTEX
  8
0
 10
0.800401
 20
9.57471
 30
0.0
 40
0
 41
0
  0
VERTEX
  8
0
 10
0.800401
 20
9.61475
 30
0.0
 40
0
 41
0
  0
SEQEND
 8
0
  0
POLYLINE
  8
0
 62
     0
 66
     1
 10
0
 20
0
 30
0.0
 70
     1
 40
0
 41
0
  0
VERTEX
  8
0
 10
0.943739
 20
9.61475
 30
0.0
 40
0
 41
0
  0
VERTEX
  8
0
 10
1.01709
 20
9.61475
 30
0.0
 40
0
 41
0
  0
VERTEX
  8
0
 10
1.01709
 20
9.57471
 30
0.0
 40
0
 41
0
  0
VERTEX
  8
0
 10
0.943739
 20
9.57471
 30
0.0
 40
0
 41
0
  0
VERTEX
  8
0
 10
0.943739
 20
9.61475
 30
0.0
 40
0
 41
0
  0
SEQEND
 8
0
  0
POLYLINE
  8
0
 62
     0
 66
     1
 10
0
 20
0
 30
0.0
 70
     1
 40
0
 41
0
  0
VERTEX
  8
0
 10
0.943739
 20
9.70469
 30
0.0
 40
0
 41
0
  0
VERTEX
  8
0
 10
1.01709
 20
9.70469
 30
0.0
 40
0
 41
0
  0
VERTEX
  8
0
 10
1.01709
 20
9.66808
 30
0.0
 40
0
 41
0
  0
VERTEX
  8
0
 10
0.943739
 20
9.66808
 30
0.0
 40
0
 41
0
  0
VERTEX
  8
0
 10
0.943739
 20
9.70469
 30
0.0
 40
0
 41
0
  0
SEQEND
 8
0
  0
POLYLINE
  8
0
 62
     0
 66
     1
 10
0
 20
0
 30
0.0
 70
     1
 40
0
 41
0
  0
VERTEX
  8
0
 10
1.35373
 20
9.92139
 30
0.0
 40
0
 41
0
  0
VERTEX
  8
0
 10
1.37044
 20
9.92139
 30
0.0
 40
0
 41
0
  0
VERTEX
  8
0
 10
1.37044
 20
9.87804
 30
0.0
 40
0
 41
0
  0
VERTEX
  8
0
 10
1.35373
 20
9.87804
 30
0.0
 40
0
 41
0
  0
VERTEX
  8
0
 10
1.35373
 20
9.92139
 30
0.0
 40
0
 41
0
  0
SEQEND
 8
0
  0
POLYLINE
  8
0
 62
     0
 66
     1
 10
0
 20
0
 30
0.0
 70
     1
 40
0
 41
0
  0
VERTEX
  8
0
 10
1.32373
 20
9.92139
 30
0.0
 40
0
 41
0
  0
VERTEX
  8
0
 10
1.34044
 20
9.92139
 30
0.0
 40
0
 41
0
  0
VERTEX
  8
0
 10
1.34044
 20
9.87804
 30
0.0
 40
0
 41
0
  0
VERTEX
  8
0
 10
1.32373
 20
9.87804
 30
0.0
 40
0
 41
0
  0
VERTEX
  8
0
 10
1.32373
 20
9.92139
 30
0.0
 40
0
 41
0
  0
SEQEND
 8
0
  0
POLYLINE
  8
0
 62
     0
 66
     1
 10
0
 20
0
 30
0.0
 70
     1
 40
0
 41
0
  0
VERTEX
  8
0
 10
1.29042
 20
9.92139
 30
0.0
 40
0
 41
0
  0
VERTEX
  8
0
 10
1.30707
 20
9.92139
 30
0.0
 40
0
 41
0
  0
VERTEX
  8
0
 10
1.30707
 20
9.87804
 30
0.0
 40
0
 41
0
  0
VERTEX
  8
0
 10
1.29042
 20
9.87804
 30
0.0
 40
0
 41
0
  0
VERTEX
  8
0
 10
1.29042
 20
9.92139
 30
0.0
 40
0
 41
0
  0
SEQEND
 8
0
  0
POLYLINE
  8
0
 62
     0
 66
     1
 10
0
 20
0
 30
0.0
 70
     1
 40
0
 41
0
  0
VERTEX
  8
0
 10
1.26042
 20
9.92139
 30
0.0
 40
0
 41
0
  0
VERTEX
  8
0
 10
1.27707
 20
9.92139
 30
0.0
 40
0
 41
0
  0
VERTEX
  8
0
 10
1.27707
 20
9.87804
 30
0.0
 40
0
 41
0
  0
VERTEX
  8
0
 10
1.26042
 20
9.87804
 30
0.0
 40
0
 41
0
  0
VERTEX
  8
0
 10
1.26042
 20
9.92139
 30
0.0
 40
0
 41
0
  0
SEQEND
 8
0
  0
POLYLINE
  8
0
 62
     0
 66
     1
 10
0
 20
0
 30
0.0
 70
     1
 40
0
 41
0
  0
VERTEX
  8
0
 10
1.22711
 20
9.92139
 30
0.0
 40
0
 41
0
  0
VERTEX
  8
0
 10
1.24707
 20
9.92139
 30
0.0
 40
0
 41
0
  0
VERTEX
  8
0
 10
1.24707
 20
9.87804
 30
0.0
 40
0
 41
0
  0
VERTEX
  8
0
 10
1.22711
 20
9.87804
 30
0.0
 40
0
 41
0
  0
VERTEX
  8
0
 10
1.22711
 20
9.92139
 30
0.0
 40
0
 41
0
  0
SEQEND
 8
0
  0
POLYLINE
  8
0
 62
     0
 66
     1
 10
0
 20
0
 30
0.0
 70
     1
 40
0
 41
0
  0
VERTEX
  8
0
 10
1.1971
 20
9.92139
 30
0.0
 40
0
 41
0
  0
VERTEX
  8
0
 10
1.21376
 20
9.92139
 30
0.0
 40
0
 41
0
  0
VERTEX
  8
0
 10
1.21376
 20
9.87804
 30
0.0
 40
0
 41
0
  0
VERTEX
  8
0
 10
1.1971
 20
9.87804
 30
0.0
 40
0
 41
0
  0
VERTEX
  8
0
 10
1.1971
 20
9.92139
 30
0.0
 40
0
 41
0
  0
SEQEND
 8
0
  0
POLYLINE
  8
0
 62
     0
 66
     1
 10
0
 20
0
 30
0.0
 70
     1
 40
0
 41
0
  0
VERTEX
  8
0
 10
1.16374
 20
9.92139
 30
0.0
 40
0
 41
0
  0
VERTEX
  8
0
 10
1.18376
 20
9.92139
 30
0.0
 40
0
 41
0
  0
VERTEX
  8
0
 10
1.18376
 20
9.87804
 30
0.0
 40
0
 41
0
  0
VERTEX
  8
0
 10
1.16374
 20
9.87804
 30
0.0
 40
0
 41
0
  0
VERTEX
  8
0
 10
1.16374
 20
9.92139
 30
0.0
 40
0
 41
0
  0
SEQEND
 8
0
  0
POLYLINE
  8
0
 62
     0
 66
     1
 10
0
 20
0
 30
0.0
 70
     1
 40
0
 41
0
  0
VERTEX
  8
0
 10
1.13373
 20
9.92139
 30
0.0
 40
0
 41
0
  0
VERTEX
  8
0
 10
1.15039
 20
9.92139
 30
0.0
 40
0
 41
0
  0
VERTEX
  8
0
 10
1.15039
 20
9.87804
 30
0.0
 40
0
 41
0
  0
VERTEX
  8
0
 10
1.13373
 20
9.87804
 30
0.0
 40
0
 41
0
  0
VERTEX
  8
0
 10
1.13373
 20
9.92139
 30
0.0
 40
0
 41
0
  0
SEQEND
 8
0
  0
POLYLINE
  8
0
 62
     0
 66
     1
 10
0
 20
0
 30
0.0
 70
     1
 40
0
 41
0
  0
VERTEX
  8
0
 10
1.13373
 20
9.58475
 30
0.0
 40
0
 41
0
  0
VERTEX
  8
0
 10
1.15039
 20
9.58475
 30
0.0
 40
0
 41
0
  0
VERTEX
  8
0
 10
1.15039
 20
9.53803
 30
0.0
 40
0
 41
0
  0
VERTEX
  8
0
 10
1.13373
 20
9.53803
 30
0.0
 40
0
 41
0
  0
VERTEX
  8
0
 10
1.13373
 20
9.58475
 30
0.0
 40
0
 41
0
  0
SEQEND
 8
0
  0
POLYLINE
  8
0
 62
     0
 66
     1
 10
0
 20
0
 30
0.0
 70
     1
 40
0
 41
0
  0
VERTEX
  8
0
 10
1.16374
 20
9.58475
 30
0.0
 40
0
 41
0
  0
VERTEX
  8
0
 10
1.18376
 20
9.58475
 30
0.0
 40
0
 41
0
  0
VERTEX
  8
0
 10
1.18376
 20
9.53803
 30
0.0
 40
0
 41
0
  0
VERTEX
  8
0
 10
1.16374
 20
9.53803
 30
0.0
 40
0
 41
0
  0
VERTEX
  8
0
 10
1.16374
 20
9.58475
 30
0.0
 40
0
 41
0
  0
SEQEND
 8
0
  0
POLYLINE
  8
0
 62
     0
 66
     1
 10
0
 20
0
 30
0.0
 70
     1
 40
0
 41
0
  0
VERTEX
  8
0
 10
1.1971
 20
9.58475
 30
0.0
 40
0
 41
0
  0
VERTEX
  8
0
 10
1.21376
 20
9.58475
 30
0.0
 40
0
 41
0
  0
VERTEX
  8
0
 10
1.21376
 20
9.53803
 30
0.0
 40
0
 41
0
  0
VERTEX
  8
0
 10
1.1971
 20
9.53803
 30
0.0
 40
0
 41
0
  0
VERTEX
  8
0
 10
1.1971
 20
9.58475
 30
0.0
 40
0
 41
0
  0
SEQEND
 8
0
  0
POLYLINE
  8
0
 62
     0
 66
     1
 10
0
 20
0
 30
0.0
 70
     1
 40
0
 41
0
  0
VERTEX
  8
0
 10
1.22711
 20
9.58475
 30
0.0
 40
0
 41
0
  0
VERTEX
  8
0
 10
1.24707
 20
9.58475
 30
0.0
 40
0
 41
0
  0
VERTEX
  8
0
 10
1.24707
 20
9.53803
 30
0.0
 40
0
 41
0
  0
VERTEX
  8
0
 10
1.22711
 20
9.53803
 30
0.0
 40
0
 41
0
  0
VERTEX
  8
0
 10
1.22711
 20
9.58475
 30
0.0
 40
0
 41
0
  0
SEQEND
 8
0
  0
POLYLINE
  8
0
 62
     0
 66
     1
 10
0
 20
0
 30
0.0
 70
     1
 40
0
 41
0
  0
VERTEX
  8
0
 10
1.26042
 20
9.58475
 30
0.0
 40
0
 41
0
  0
VERTEX
  8
0
 10
1.27707
 20
9.58475
 30
0.0
 40
0
 41
0
  0
VERTEX
  8
0
 10
1.27707
 20
9.53803
 30
0.0
 40
0
 41
0
  0
VERTEX
  8
0
 10
1.26042
 20
9.53803
 30
0.0
 40
0
 41
0
  0
VERTEX
  8
0
 10
1.26042
 20
9.58475
 30
0.0
 40
0
 41
0
  0
SEQEND
 8
0
  0
POLYLINE
  8
0
 62
     0
 66
     1
 10
0
 20
0
 30
0.0
 70
     1
 40
0
 41
0
  0
VERTEX
  8
0
 10
1.29042
 20
9.58475
 30
0.0
 40
0
 41
0
  0
VERTEX
  8
0
 10
1.30707
 20
9.58475
 30
0.0
 40
0
 41
0
  0
VERTEX
  8
0
 10
1.30707
 20
9.53803
 30
0.0
 40
0
 41
0
  0
VERTEX
  8
0
 10
1.29042
 20
9.53803
 30
0.0
 40
0
 41
0
  0
VERTEX
  8
0
 10
1.29042
 20
9.58475
 30
0.0
 40
0
 41
0
  0
SEQEND
 8
0
  0
POLYLINE
  8
0
 62
     0
 66
     1
 10
0
 20
0
 30
0.0
 70
     1
 40
0
 41
0
  0
VERTEX
  8
0
 10
1.32373
 20
9.58475
 30
0.0
 40
0
 41
0
  0
VERTEX
  8
0
 10
1.34044
 20
9.58475
 30
0.0
 40
0
 41
0
  0
VERTEX
  8
0
 10
1.34044
 20
9.53803
 30
0.0
 40
0
 41
0
  0
VERTEX
  8
0
 10
1.32373
 20
9.53803
 30
0.0
 40
0
 41
0
  0
VERTEX
  8
0
 10
1.32373
 20
9.58475
 30
0.0
 40
0
 41
0
  0
SEQEND
 8
0
  0
POLYLINE
  8
0
 62
     0
 66
     1
 10
0
 20
0
 30
0.0
 70
     1
 40
0
 41
0
  0
VERTEX
  8
0
 10
1.35373
 20
9.58475
 30
0.0
 40
0
 41
0
  0
VERTEX
  8
0
 10
1.37044
 20
9.58475
 30
0.0
 40
0
 41
0
  0
VERTEX
  8
0
 10
1.37044
 20
9.53803
 30
0.0
 40
0
 41
0
  0
VERTEX
  8
0
 10
1.35373
 20
9.53803
 30
0.0
 40
0
 41
0
  0
VERTEX
  8
0
 10
1.35373
 20
9.58475
 30
0.0
 40
0
 41
0
  0
SEQEND
 8
0
  0
POLYLINE
  8
0
 62
     0
 66
     1
 10
0
 20
0
 30
0.0
 70
     1
 40
0
 41
0
  0
VERTEX
  8
0
 10
1.39708
 20
9.6314
 30
0.0
 40
0
 41
0
  0
VERTEX
  8
0
 10
1.44374
 20
9.6314
 30
0.0
 40
0
 41
0
  0
VERTEX
  8
0
 10
1.44374
 20
9.61139
 30
0.0
 40
0
 41
0
  0
VERTEX
  8
0
 10
1.39708
 20
9.61139
 30
0.0
 40
0
 41
0
  0
VERTEX
  8
0
 10
1.39708
 20
9.6314
 30
0.0
 40
0
 41
0
  0
SEQEND
 8
0
  0
POLYLINE
  8
0
 62
     0
 66
     1
 10
0
 20
0
 30
0.0
 70
     1
 40
0
 41
0
  0
VERTEX
  8
0
 10
1.39708
 20
9.6614
 30
0.0
 40
0
 41
0
  0
VERTEX
  8
0
 10
1.44374
 20
9.6614
 30
0.0
 40
0
 41
0
  0
VERTEX
  8
0
 10
1.44374
 20
9.64475
 30
0.0
 40
0
 41
0
  0
VERTEX
  8
0
 10
1.39708
 20
9.64475
 30
0.0
 40
0
 41
0
  0
VERTEX
  8
0
 10
1.39708
 20
9.6614
 30
0.0
 40
0
 41
0
  0
SEQEND
 8
0
  0
POLYLINE
  8
0
 62
     0
 66
     1
 10
0
 20
0
 30
0.0
 70
     1
 40
0
 41
0
  0
VERTEX
  8
0
 10
1.39708
 20
9.6914
 30
0.0
 40
0
 41
0
  0
VERTEX
  8
0
 10
1.44374
 20
9.6914
 30
0.0
 40
0
 41
0
  0
VERTEX
  8
0
 10
1.44374
 20
9.67469
 30
0.0
 40
0
 41
0
  0
VERTEX
  8
0
 10
1.39708
 20
9.67469
 30
0.0
 40
0
 41
0
  0
VERTEX
  8
0
 10
1.39708
 20
9.6914
 30
0.0
 40
0
 41
0
  0
SEQEND
 8
0
  0
POLYLINE
  8
0
 62
     0
 66
     1
 10
0
 20
0
 30
0.0
 70
     1
 40
0
 41
0
  0
VERTEX
  8
0
 10
1.39708
 20
9.72472
 30
0.0
 40
0
 41
0
  0
VERTEX
  8
0
 10
1.44374
 20
9.72472
 30
0.0
 40
0
 41
0
  0
VERTEX
  8
0
 10
1.44374
 20
9.70469
 30
0.0
 40
0
 41
0
  0
VERTEX
  8
0
 10
1.39708
 20
9.70469
 30
0.0
 40
0
 41
0
  0
VERTEX
  8
0
 10
1.39708
 20
9.72472
 30
0.0
 40
0
 41
0
  0
SEQEND
 8
0
  0
POLYLINE
  8
0
 62
     0
 66
     1
 10
0
 20
0
 30
0.0
 70
     1
 40
0
 41
0
  0
VERTEX
  8
0
 10
1.39708
 20
9.75472
 30
0.0
 40
0
 41
0
  0
VERTEX
  8
0
 10
1.44374
 20
9.75472
 30
0.0
 40
0
 41
0
  0
VERTEX
  8
0
 10
1.44374
 20
9.73807
 30
0.0
 40
0
 41
0
  0
VERTEX
  8
0
 10
1.39708
 20
9.73807
 30
0.0
 40
0
 41
0
  0
VERTEX
  8
0
 10
1.39708
 20
9.75472
 30
0.0
 40
0
 41
0
  0
SEQEND
 8
0
  0
POLYLINE
  8
0
 62
     0
 66
     1
 10
0
 20
0
 30
0.0
 70
     1
 40
0
 41
0
  0
VERTEX
  8
0
 10
1.39708
 20
9.78803
 30
0.0
 40
0
 41
0
  0
VERTEX
  8
0
 10
1.44374
 20
9.78803
 30
0.0
 40
0
 41
0
  0
VERTEX
  8
0
 10
1.44374
 20
9.76807
 30
0.0
 40
0
 41
0
  0
VERTEX
  8
0
 10
1.39708
 20
9.76807
 30
0.0
 40
0
 41
0
  0
VERTEX
  8
0
 10
1.39708
 20
9.78803
 30
0.0
 40
0
 41
0
  0
SEQEND
 8
0
  0
POLYLINE
  8
0
 62
     0
 66
     1
 10
0
 20
0
 30
0.0
 70
     1
 40
0
 41
0
  0
VERTEX
  8
0
 10
1.39708
 20
9.81803
 30
0.0
 40
0
 41
0
  0
VERTEX
  8
0
 10
1.44374
 20
9.81803
 30
0.0
 40
0
 41
0
  0
VERTEX
  8
0
 10
1.44374
 20
9.80137
 30
0.0
 40
0
 41
0
  0
VERTEX
  8
0
 10
1.39708
 20
9.80137
 30
0.0
 40
0
 41
0
  0
VERTEX
  8
0
 10
1.39708
 20
9.81803
 30
0.0
 40
0
 41
0
  0
SEQEND
 8
0
  0
POLYLINE
  8
0
 62
     0
 66
     1
 10
0
 20
0
 30
0.0
 70
     1
 40
0
 41
0
  0
VERTEX
  8
0
 10
1.39708
 20
9.8514
 30
0.0
 40
0
 41
0
  0
VERTEX
  8
0
 10
1.44374
 20
9.8514
 30
0.0
 40
0
 41
0
  0
VERTEX
  8
0
 10
1.44374
 20
9.83138
 30
0.0
 40
0
 41
0
  0
VERTEX
  8
0
 10
1.39708
 20
9.83138
 30
0.0
 40
0
 41
0
  0
VERTEX
  8
0
 10
1.39708
 20
9.8514
 30
0.0
 40
0
 41
0
  0
SEQEND
 8
0
  0
POLYLINE
  8
0
 62
     0
 66
     1
 10
0
 20
0
 30
0.0
 70
     1
 40
0
 41
0
  0
VERTEX
  8
0
 10
1.06044
 20
9.8514
 30
0.0
 40
0
 41
0
  0
VERTEX
  8
0
 10
1.1071
 20
9.8514
 30
0.0
 40
0
 41
0
  0
VERTEX
  8
0
 10
1.1071
 20
9.83138
 30
0.0
 40
0
 41
0
  0
VERTEX
  8
0
 10
1.06044
 20
9.83138
 30
0.0
 40
0
 41
0
  0
VERTEX
  8
0
 10
1.06044
 20
9.8514
 30
0.0
 40
0
 41
0
  0
SEQEND
 8
0
  0
POLYLINE
  8
0
 62
     0
 66
     1
 10
0
 20
0
 30
0.0
 70
     1
 40
0
 41
0
  0
VERTEX
  8
0
 10
1.06044
 20
9.81803
 30
0.0
 40
0
 41
0
  0
VERTEX
  8
0
 10
1.1071
 20
9.81803
 30
0.0
 40
0
 41
0
  0
VERTEX
  8
0
 10
1.1071
 20
9.80137
 30
0.0
 40
0
 41
0
  0
VERTEX
  8
0
 10
1.06044
 20
9.80137
 30
0.0
 40
0
 41
0
  0
VERTEX
  8
0
 10
1.06044
 20
9.81803
 30
0.0
 40
0
 41
0
  0
SEQEND
 8
0
  0
POLYLINE
  8
0
 62
     0
 66
     1
 10
0
 20
0
 30
0.0
 70
     1
 40
0
 41
0
  0
VERTEX
  8
0
 10
1.06044
 20
9.78803
 30
0.0
 40
0
 41
0
  0
VERTEX
  8
0
 10
1.1071
 20
9.78803
 30
0.0
 40
0
 41
0
  0
VERTEX
  8
0
 10
1.1071
 20
9.76807
 30
0.0
 40
0
 41
0
  0
VERTEX
  8
0
 10
1.06044
 20
9.76807
 30
0.0
 40
0
 41
0
  0
VERTEX
  8
0
 10
1.06044
 20
9.78803
 30
0.0
 40
0
 41
0
  0
SEQEND
 8
0
  0
POLYLINE
  8
0
 62
     0
 66
     1
 10
0
 20
0
 30
0.0
 70
     1
 40
0
 41
0
  0
VERTEX
  8
0
 10
1.06044
 20
9.75472
 30
0.0
 40
0
 41
0
  0
VERTEX
  8
0
 10
1.1071
 20
9.75472
 30
0.0
 40
0
 41
0
  0
VERTEX
  8
0
 10
1.1071
 20
9.73807
 30
0.0
 40
0
 41
0
  0
VERTEX
  8
0
 10
1.06044
 20
9.73807
 30
0.0
 40
0
 41
0
  0
VERTEX
  8
0
 10
1.06044
 20
9.75472
 30
0.0
 40
0
 41
0
  0
SEQEND
 8
0
  0
POLYLINE
  8
0
 62
     0
 66
     1
 10
0
 20
0
 30
0.0
 70
     1
 40
0
 41
0
  0
VERTEX
  8
0
 10
1.06044
 20
9.72472
 30
0.0
 40
0
 41
0
  0
VERTEX
  8
0
 10
1.1071
 20
9.72472
 30
0.0
 40
0
 41
0
  0
VERTEX
  8
0
 10
1.1071
 20
9.70469
 30
0.0
 40
0
 41
0
  0
VERTEX
  8
0
 10
1.06044
 20
9.70469
 30
0.0
 40
0
 41
0
  0
VERTEX
  8
0
 10
1.06044
 20
9.72472
 30
0.0
 40
0
 41
0
  0
SEQEND
 8
0
  0
POLYLINE
  8
0
 62
     0
 66
     1
 10
0
 20
0
 30
0.0
 70
     1
 40
0
 41
0
  0
VERTEX
  8
0
 10
1.06044
 20
9.6914
 30
0.0
 40
0
 41
0
  0
VERTEX
  8
0
 10
1.1071
 20
9.6914
 30
0.0
 40
0
 41
0
  0
VERTEX
  8
0
 10
1.1071
 20
9.67469
 30
0.0
 40
0
 41
0
  0
VERTEX
  8
0
 10
1.06044
 20
9.67469
 30
0.0
 40
0
 41
0
  0
VERTEX
  8
0
 10
1.06044
 20
9.6914
 30
0.0
 40
0
 41
0
  0
SEQEND
 8
0
  0
POLYLINE
  8
0
 62
     0
 66
     1
 10
0
 20
0
 30
0.0
 70
     1
 40
0
 41
0
  0
VERTEX
  8
0
 10
1.06044
 20
9.6614
 30
0.0
 40
0
 41
0
  0
VERTEX
  8
0
 10
1.1071
 20
9.6614
 30
0.0
 40
0
 41
0
  0
VERTEX
  8
0
 10
1.1071
 20
9.64475
 30
0.0
 40
0
 41
0
  0
VERTEX
  8
0
 10
1.06044
 20
9.64475
 30
0.0
 40
0
 41
0
  0
VERTEX
  8
0
 10
1.06044
 20
9.6614
 30
0.0
 40
0
 41
0
  0
SEQEND
 8
0
  0
POLYLINE
  8
0
 62
     0
 66
     1
 10
0
 20
0
 30
0.0
 70
     1
 40
0
 41
0
  0
VERTEX
  8
0
 10
1.06044
 20
9.6314
 30
0.0
 40
0
 41
0
  0
VERTEX
  8
0
 10
1.1071
 20
9.6314
 30
0.0
 40
0
 41
0
  0
VERTEX
  8
0
 10
1.1071
 20
9.61139
 30
0.0
 40
0
 41
0
  0
VERTEX
  8
0
 10
1.06044
 20
9.61139
 30
0.0
 40
0
 41
0
  0
VERTEX
  8
0
 10
1.06044
 20
9.6314
 30
0.0
 40
0
 41
0
  0
SEQEND
 8
0
  0
ENDSEC
  0
EOF
