solid OpenSCAD_Model
  facet normal 1 -0 0
    outer loop
      vertex 2 2 7
      vertex 2 13 3
      vertex 2 13 7
    endloop
  endfacet
  facet normal 1 0 0
    outer loop
      vertex 2 13 3
      vertex 2 2 7
      vertex 2 2 3
    endloop
  endfacet
  facet normal -0 0 1
    outer loop
      vertex 2 15 7
      vertex 32 13 7
      vertex 32 15 7
    endloop
  endfacet
  facet normal 0 0 1
    outer loop
      vertex 32 13 7
      vertex 2 15 7
      vertex 2 13 7
    endloop
  endfacet
  facet normal 0 0 1
    outer loop
      vertex 32 15 7
      vertex 34 28 7
      vertex 32 26 7
    endloop
  endfacet
  facet normal 0 0 1
    outer loop
      vertex 34 28 7
      vertex 2 26 7
      vertex 32 26 7
    endloop
  endfacet
  facet normal 0 0 1
    outer loop
      vertex 0 28 7
      vertex 2 15 7
      vertex 2 26 7
    endloop
  endfacet
  facet normal 0 0 1
    outer loop
      vertex 2 15 7
      vertex 0 28 7
      vertex 2 13 7
    endloop
  endfacet
  facet normal 0 0 1
    outer loop
      vertex 0 0 7
      vertex 2 13 7
      vertex 0 28 7
    endloop
  endfacet
  facet normal -0 0 1
    outer loop
      vertex 0 28 7
      vertex 2 26 7
      vertex 34 28 7
    endloop
  endfacet
  facet normal 0 0 1
    outer loop
      vertex 34 28 7
      vertex 32 15 7
      vertex 34 0 7
    endloop
  endfacet
  facet normal -0 0 1
    outer loop
      vertex 32 13 7
      vertex 34 0 7
      vertex 32 15 7
    endloop
  endfacet
  facet normal -0 0 1
    outer loop
      vertex 32 2 7
      vertex 34 0 7
      vertex 32 13 7
    endloop
  endfacet
  facet normal -0 0 1
    outer loop
      vertex 2 2 7
      vertex 34 0 7
      vertex 32 2 7
    endloop
  endfacet
  facet normal 0 0 1
    outer loop
      vertex 2 2 7
      vertex 0 0 7
      vertex 34 0 7
    endloop
  endfacet
  facet normal 0 0 1
    outer loop
      vertex 2 13 7
      vertex 0 0 7
      vertex 2 2 7
    endloop
  endfacet
  facet normal 0 0 1
    outer loop
      vertex 19.4454 8.01978 7
      vertex 19.4454 6.98022 7
      vertex 19.5 7.5 7
    endloop
  endfacet
  facet normal 0 0 1
    outer loop
      vertex 19.2839 8.51684 7
      vertex 19.4454 6.98022 7
      vertex 19.4454 8.01978 7
    endloop
  endfacet
  facet normal 0 0 1
    outer loop
      vertex 19.2839 8.51684 7
      vertex 19.2839 6.48316 7
      vertex 19.4454 6.98022 7
    endloop
  endfacet
  facet normal 0 0 1
    outer loop
      vertex 19.0225 8.96946 7
      vertex 19.2839 6.48316 7
      vertex 19.2839 8.51684 7
    endloop
  endfacet
  facet normal 0 0 1
    outer loop
      vertex 19.0225 8.96946 7
      vertex 19.0225 6.03054 7
      vertex 19.2839 6.48316 7
    endloop
  endfacet
  facet normal 0 0 1
    outer loop
      vertex 18.6728 9.35786 7
      vertex 19.0225 6.03054 7
      vertex 19.0225 8.96946 7
    endloop
  endfacet
  facet normal 0 0 1
    outer loop
      vertex 18.6728 9.35786 7
      vertex 18.6728 5.64214 7
      vertex 19.0225 6.03054 7
    endloop
  endfacet
  facet normal 0 0 1
    outer loop
      vertex 18.25 9.66506 7
      vertex 18.6728 5.64214 7
      vertex 18.6728 9.35786 7
    endloop
  endfacet
  facet normal 0 0 1
    outer loop
      vertex 18.25 9.66506 7
      vertex 18.25 5.33494 7
      vertex 18.6728 5.64214 7
    endloop
  endfacet
  facet normal 0 0 1
    outer loop
      vertex 17.7725 9.87764 7
      vertex 18.25 5.33494 7
      vertex 18.25 9.66506 7
    endloop
  endfacet
  facet normal 0 0 1
    outer loop
      vertex 17.7725 9.87764 7
      vertex 17.7725 5.12236 7
      vertex 18.25 5.33494 7
    endloop
  endfacet
  facet normal 0 0 1
    outer loop
      vertex 17.2613 9.9863 7
      vertex 17.7725 5.12236 7
      vertex 17.7725 9.87764 7
    endloop
  endfacet
  facet normal 0 0 1
    outer loop
      vertex 17.2613 9.9863 7
      vertex 17.2613 5.01369 7
      vertex 17.7725 5.12236 7
    endloop
  endfacet
  facet normal -0 0 1
    outer loop
      vertex 16.7387 9.9863 7
      vertex 17.2613 5.01369 7
      vertex 17.2613 9.9863 7
    endloop
  endfacet
  facet normal 0 0 1
    outer loop
      vertex 16.7387 9.9863 7
      vertex 16.7387 5.01369 7
      vertex 17.2613 5.01369 7
    endloop
  endfacet
  facet normal -0 0 1
    outer loop
      vertex 16.2275 9.87764 7
      vertex 16.7387 5.01369 7
      vertex 16.7387 9.9863 7
    endloop
  endfacet
  facet normal 0 0 1
    outer loop
      vertex 16.2275 9.87764 7
      vertex 16.2275 5.12236 7
      vertex 16.7387 5.01369 7
    endloop
  endfacet
  facet normal -0 0 1
    outer loop
      vertex 15.75 9.66506 7
      vertex 16.2275 5.12236 7
      vertex 16.2275 9.87764 7
    endloop
  endfacet
  facet normal 0 0 1
    outer loop
      vertex 15.75 9.66506 7
      vertex 15.75 5.33494 7
      vertex 16.2275 5.12236 7
    endloop
  endfacet
  facet normal -0 0 1
    outer loop
      vertex 15.3272 9.35786 7
      vertex 15.75 5.33494 7
      vertex 15.75 9.66506 7
    endloop
  endfacet
  facet normal 0 0 1
    outer loop
      vertex 15.3272 9.35786 7
      vertex 15.3272 5.64214 7
      vertex 15.75 5.33494 7
    endloop
  endfacet
  facet normal -0 0 1
    outer loop
      vertex 14.9775 8.96946 7
      vertex 15.3272 5.64214 7
      vertex 15.3272 9.35786 7
    endloop
  endfacet
  facet normal 0 0 1
    outer loop
      vertex 14.9775 8.96946 7
      vertex 14.9775 6.03054 7
      vertex 15.3272 5.64214 7
    endloop
  endfacet
  facet normal -0 0 1
    outer loop
      vertex 14.7161 8.51684 7
      vertex 14.9775 6.03054 7
      vertex 14.9775 8.96946 7
    endloop
  endfacet
  facet normal 0 0 1
    outer loop
      vertex 14.7161 8.51684 7
      vertex 14.7161 6.48316 7
      vertex 14.9775 6.03054 7
    endloop
  endfacet
  facet normal -0 0 1
    outer loop
      vertex 14.5546 8.01978 7
      vertex 14.7161 6.48316 7
      vertex 14.7161 8.51684 7
    endloop
  endfacet
  facet normal 0 0 1
    outer loop
      vertex 14.5546 8.01978 7
      vertex 14.5546 6.98022 7
      vertex 14.7161 6.48316 7
    endloop
  endfacet
  facet normal 0 -0 1
    outer loop
      vertex 14.5546 6.98022 7
      vertex 14.5546 8.01978 7
      vertex 14.5 7.5 7
    endloop
  endfacet
  facet normal 0 0 1
    outer loop
      vertex 19.4454 21.0198 7
      vertex 19.4454 19.9802 7
      vertex 19.5 20.5 7
    endloop
  endfacet
  facet normal 0 0 1
    outer loop
      vertex 19.2839 21.5168 7
      vertex 19.4454 19.9802 7
      vertex 19.4454 21.0198 7
    endloop
  endfacet
  facet normal 0 0 1
    outer loop
      vertex 19.2839 21.5168 7
      vertex 19.2839 19.4832 7
      vertex 19.4454 19.9802 7
    endloop
  endfacet
  facet normal 0 0 1
    outer loop
      vertex 19.0225 21.9695 7
      vertex 19.2839 19.4832 7
      vertex 19.2839 21.5168 7
    endloop
  endfacet
  facet normal 0 0 1
    outer loop
      vertex 19.0225 21.9695 7
      vertex 19.0225 19.0305 7
      vertex 19.2839 19.4832 7
    endloop
  endfacet
  facet normal 0 0 1
    outer loop
      vertex 18.6728 22.3579 7
      vertex 19.0225 19.0305 7
      vertex 19.0225 21.9695 7
    endloop
  endfacet
  facet normal 0 0 1
    outer loop
      vertex 18.6728 22.3579 7
      vertex 18.6728 18.6421 7
      vertex 19.0225 19.0305 7
    endloop
  endfacet
  facet normal 0 0 1
    outer loop
      vertex 18.25 22.6651 7
      vertex 18.6728 18.6421 7
      vertex 18.6728 22.3579 7
    endloop
  endfacet
  facet normal 0 0 1
    outer loop
      vertex 18.25 22.6651 7
      vertex 18.25 18.3349 7
      vertex 18.6728 18.6421 7
    endloop
  endfacet
  facet normal 0 0 1
    outer loop
      vertex 17.7725 22.8776 7
      vertex 18.25 18.3349 7
      vertex 18.25 22.6651 7
    endloop
  endfacet
  facet normal 0 0 1
    outer loop
      vertex 17.7725 22.8776 7
      vertex 17.7725 18.1224 7
      vertex 18.25 18.3349 7
    endloop
  endfacet
  facet normal 0 0 1
    outer loop
      vertex 17.2613 22.9863 7
      vertex 17.7725 18.1224 7
      vertex 17.7725 22.8776 7
    endloop
  endfacet
  facet normal 0 0 1
    outer loop
      vertex 17.2613 22.9863 7
      vertex 17.2613 18.0137 7
      vertex 17.7725 18.1224 7
    endloop
  endfacet
  facet normal -0 0 1
    outer loop
      vertex 16.7387 22.9863 7
      vertex 17.2613 18.0137 7
      vertex 17.2613 22.9863 7
    endloop
  endfacet
  facet normal 0 0 1
    outer loop
      vertex 16.7387 22.9863 7
      vertex 16.7387 18.0137 7
      vertex 17.2613 18.0137 7
    endloop
  endfacet
  facet normal -0 0 1
    outer loop
      vertex 16.2275 22.8776 7
      vertex 16.7387 18.0137 7
      vertex 16.7387 22.9863 7
    endloop
  endfacet
  facet normal 0 0 1
    outer loop
      vertex 16.2275 22.8776 7
      vertex 16.2275 18.1224 7
      vertex 16.7387 18.0137 7
    endloop
  endfacet
  facet normal -0 0 1
    outer loop
      vertex 15.75 22.6651 7
      vertex 16.2275 18.1224 7
      vertex 16.2275 22.8776 7
    endloop
  endfacet
  facet normal 0 0 1
    outer loop
      vertex 15.75 22.6651 7
      vertex 15.75 18.3349 7
      vertex 16.2275 18.1224 7
    endloop
  endfacet
  facet normal -0 0 1
    outer loop
      vertex 15.3272 22.3579 7
      vertex 15.75 18.3349 7
      vertex 15.75 22.6651 7
    endloop
  endfacet
  facet normal 0 0 1
    outer loop
      vertex 15.3272 22.3579 7
      vertex 15.3272 18.6421 7
      vertex 15.75 18.3349 7
    endloop
  endfacet
  facet normal -0 0 1
    outer loop
      vertex 14.9775 21.9695 7
      vertex 15.3272 18.6421 7
      vertex 15.3272 22.3579 7
    endloop
  endfacet
  facet normal 0 0 1
    outer loop
      vertex 14.9775 21.9695 7
      vertex 14.9775 19.0305 7
      vertex 15.3272 18.6421 7
    endloop
  endfacet
  facet normal -0 0 1
    outer loop
      vertex 14.7161 21.5168 7
      vertex 14.9775 19.0305 7
      vertex 14.9775 21.9695 7
    endloop
  endfacet
  facet normal 0 0 1
    outer loop
      vertex 14.7161 21.5168 7
      vertex 14.7161 19.4832 7
      vertex 14.9775 19.0305 7
    endloop
  endfacet
  facet normal -0 0 1
    outer loop
      vertex 14.5546 21.0198 7
      vertex 14.7161 19.4832 7
      vertex 14.7161 21.5168 7
    endloop
  endfacet
  facet normal 0 0 1
    outer loop
      vertex 14.5546 21.0198 7
      vertex 14.5546 19.9802 7
      vertex 14.7161 19.4832 7
    endloop
  endfacet
  facet normal 0 -0 1
    outer loop
      vertex 14.5546 19.9802 7
      vertex 14.5546 21.0198 7
      vertex 14.5 20.5 7
    endloop
  endfacet
  facet normal -1 0 0
    outer loop
      vertex 32 2 3
      vertex 32 13 7
      vertex 32 13 3
    endloop
  endfacet
  facet normal -1 -0 0
    outer loop
      vertex 32 13 7
      vertex 32 2 3
      vertex 32 2 7
    endloop
  endfacet
  facet normal 0 0 1
    outer loop
      vertex 32 13 3
      vertex 19.5 7.5 3
      vertex 32 2 3
    endloop
  endfacet
  facet normal 0 0 1
    outer loop
      vertex 32 13 3
      vertex 19.4454 8.01978 3
      vertex 19.5 7.5 3
    endloop
  endfacet
  facet normal 0 0 1
    outer loop
      vertex 32 13 3
      vertex 19.2839 8.51684 3
      vertex 19.4454 8.01978 3
    endloop
  endfacet
  facet normal 0 0 1
    outer loop
      vertex 32 13 3
      vertex 19.0225 8.96946 3
      vertex 19.2839 8.51684 3
    endloop
  endfacet
  facet normal 0 0 1
    outer loop
      vertex 32 13 3
      vertex 18.6728 9.35786 3
      vertex 19.0225 8.96946 3
    endloop
  endfacet
  facet normal 0 0 1
    outer loop
      vertex 32 13 3
      vertex 18.25 9.66506 3
      vertex 18.6728 9.35786 3
    endloop
  endfacet
  facet normal 0 0 1
    outer loop
      vertex 32 13 3
      vertex 17.7725 9.87764 3
      vertex 18.25 9.66506 3
    endloop
  endfacet
  facet normal 0 0 1
    outer loop
      vertex 32 13 3
      vertex 17.2613 9.9863 3
      vertex 17.7725 9.87764 3
    endloop
  endfacet
  facet normal 0 0 1
    outer loop
      vertex 32 13 3
      vertex 16.7387 9.9863 3
      vertex 17.2613 9.9863 3
    endloop
  endfacet
  facet normal 0 0 1
    outer loop
      vertex 14.5546 8.01978 3
      vertex 2 13 3
      vertex 14.5 7.5 3
    endloop
  endfacet
  facet normal 0 0 1
    outer loop
      vertex 14.7161 8.51684 3
      vertex 2 13 3
      vertex 14.5546 8.01978 3
    endloop
  endfacet
  facet normal 0 0 1
    outer loop
      vertex 14.9775 8.96946 3
      vertex 2 13 3
      vertex 14.7161 8.51684 3
    endloop
  endfacet
  facet normal 0 0 1
    outer loop
      vertex 15.3272 9.35786 3
      vertex 2 13 3
      vertex 14.9775 8.96946 3
    endloop
  endfacet
  facet normal 0 0 1
    outer loop
      vertex 15.75 9.66506 3
      vertex 2 13 3
      vertex 15.3272 9.35786 3
    endloop
  endfacet
  facet normal 0 0 1
    outer loop
      vertex 16.2275 9.87764 3
      vertex 2 13 3
      vertex 15.75 9.66506 3
    endloop
  endfacet
  facet normal 0 0 1
    outer loop
      vertex 16.7387 9.9863 3
      vertex 2 13 3
      vertex 16.2275 9.87764 3
    endloop
  endfacet
  facet normal -0 0 1
    outer loop
      vertex 2 13 3
      vertex 16.7387 9.9863 3
      vertex 32 13 3
    endloop
  endfacet
  facet normal -0 0 1
    outer loop
      vertex 19.4454 6.98022 3
      vertex 32 2 3
      vertex 19.5 7.5 3
    endloop
  endfacet
  facet normal -0 0 1
    outer loop
      vertex 19.2839 6.48316 3
      vertex 32 2 3
      vertex 19.4454 6.98022 3
    endloop
  endfacet
  facet normal -0 0 1
    outer loop
      vertex 19.0225 6.03054 3
      vertex 32 2 3
      vertex 19.2839 6.48316 3
    endloop
  endfacet
  facet normal -0 0 1
    outer loop
      vertex 18.6728 5.64214 3
      vertex 32 2 3
      vertex 19.0225 6.03054 3
    endloop
  endfacet
  facet normal -0 0 1
    outer loop
      vertex 18.25 5.33494 3
      vertex 32 2 3
      vertex 18.6728 5.64214 3
    endloop
  endfacet
  facet normal -0 0 1
    outer loop
      vertex 17.7725 5.12236 3
      vertex 32 2 3
      vertex 18.25 5.33494 3
    endloop
  endfacet
  facet normal -0 0 1
    outer loop
      vertex 17.2613 5.01369 3
      vertex 32 2 3
      vertex 17.7725 5.12236 3
    endloop
  endfacet
  facet normal -0 0 1
    outer loop
      vertex 16.7387 5.01369 3
      vertex 32 2 3
      vertex 17.2613 5.01369 3
    endloop
  endfacet
  facet normal 0 0 1
    outer loop
      vertex 2 2 3
      vertex 14.5 7.5 3
      vertex 2 13 3
    endloop
  endfacet
  facet normal 0 0 1
    outer loop
      vertex 14.5 7.5 3
      vertex 2 2 3
      vertex 14.5546 6.98022 3
    endloop
  endfacet
  facet normal 0 0 1
    outer loop
      vertex 14.5546 6.98022 3
      vertex 2 2 3
      vertex 14.7161 6.48316 3
    endloop
  endfacet
  facet normal 0 0 1
    outer loop
      vertex 14.7161 6.48316 3
      vertex 2 2 3
      vertex 14.9775 6.03054 3
    endloop
  endfacet
  facet normal 0 0 1
    outer loop
      vertex 14.9775 6.03054 3
      vertex 2 2 3
      vertex 15.3272 5.64214 3
    endloop
  endfacet
  facet normal 0 0 1
    outer loop
      vertex 16.7387 5.01369 3
      vertex 2 2 3
      vertex 32 2 3
    endloop
  endfacet
  facet normal 0 0 1
    outer loop
      vertex 16.2275 5.12236 3
      vertex 2 2 3
      vertex 16.7387 5.01369 3
    endloop
  endfacet
  facet normal 0 0 1
    outer loop
      vertex 15.75 5.33494 3
      vertex 2 2 3
      vertex 16.2275 5.12236 3
    endloop
  endfacet
  facet normal 0 0 1
    outer loop
      vertex 15.3272 5.64214 3
      vertex 2 2 3
      vertex 15.75 5.33494 3
    endloop
  endfacet
  facet normal 0 1 -0
    outer loop
      vertex 32 2 3
      vertex 2 2 7
      vertex 32 2 7
    endloop
  endfacet
  facet normal 0 1 0
    outer loop
      vertex 2 2 7
      vertex 32 2 3
      vertex 2 2 3
    endloop
  endfacet
  facet normal 0 -1 0
    outer loop
      vertex 2 13 3
      vertex 32 13 7
      vertex 2 13 7
    endloop
  endfacet
  facet normal 0 -1 -0
    outer loop
      vertex 32 13 7
      vertex 2 13 3
      vertex 32 13 3
    endloop
  endfacet
  facet normal 0.994522 0.104527 0
    outer loop
      vertex 19.5 7.5 7
      vertex 19.4454 8.01978 3
      vertex 19.4454 8.01978 7
    endloop
  endfacet
  facet normal 0.994522 0.104527 0
    outer loop
      vertex 19.4454 8.01978 3
      vertex 19.5 7.5 7
      vertex 19.5 7.5 3
    endloop
  endfacet
  facet normal 0 1 -0
    outer loop
      vertex 17.2613 9.9863 3
      vertex 16.7387 9.9863 7
      vertex 17.2613 9.9863 7
    endloop
  endfacet
  facet normal 0 1 0
    outer loop
      vertex 16.7387 9.9863 7
      vertex 17.2613 9.9863 3
      vertex 16.7387 9.9863 3
    endloop
  endfacet
  facet normal 0.587787 0.809016 -0
    outer loop
      vertex 18.6728 9.35786 3
      vertex 18.25 9.66506 7
      vertex 18.6728 9.35786 7
    endloop
  endfacet
  facet normal 0.587787 0.809016 0
    outer loop
      vertex 18.25 9.66506 7
      vertex 18.6728 9.35786 3
      vertex 18.25 9.66506 3
    endloop
  endfacet
  facet normal -0.743145 0.669131 0
    outer loop
      vertex 14.9775 8.96946 3
      vertex 15.3272 9.35786 7
      vertex 15.3272 9.35786 3
    endloop
  endfacet
  facet normal -0.743145 0.669131 0
    outer loop
      vertex 15.3272 9.35786 7
      vertex 14.9775 8.96946 3
      vertex 14.9775 8.96946 7
    endloop
  endfacet
  facet normal -0.406737 0.913545 0
    outer loop
      vertex 16.2275 9.87764 3
      vertex 15.75 9.66506 7
      vertex 16.2275 9.87764 7
    endloop
  endfacet
  facet normal -0.406737 0.913545 0
    outer loop
      vertex 15.75 9.66506 7
      vertex 16.2275 9.87764 3
      vertex 15.75 9.66506 3
    endloop
  endfacet
  facet normal 0.743145 -0.669131 0
    outer loop
      vertex 18.6728 5.64214 7
      vertex 19.0225 6.03054 3
      vertex 19.0225 6.03054 7
    endloop
  endfacet
  facet normal 0.743145 -0.669131 0
    outer loop
      vertex 19.0225 6.03054 3
      vertex 18.6728 5.64214 7
      vertex 18.6728 5.64214 3
    endloop
  endfacet
  facet normal -0.951056 -0.309018 0
    outer loop
      vertex 14.7161 6.48316 3
      vertex 14.5546 6.98022 7
      vertex 14.5546 6.98022 3
    endloop
  endfacet
  facet normal -0.951056 -0.309018 0
    outer loop
      vertex 14.5546 6.98022 7
      vertex 14.7161 6.48316 3
      vertex 14.7161 6.48316 7
    endloop
  endfacet
  facet normal 0.866025 0.500001 0
    outer loop
      vertex 19.2839 8.51684 7
      vertex 19.0225 8.96946 3
      vertex 19.0225 8.96946 7
    endloop
  endfacet
  facet normal 0.866025 0.500001 0
    outer loop
      vertex 19.0225 8.96946 3
      vertex 19.2839 8.51684 7
      vertex 19.2839 8.51684 3
    endloop
  endfacet
  facet normal 0.951056 0.30902 0
    outer loop
      vertex 19.4454 8.01978 7
      vertex 19.2839 8.51684 3
      vertex 19.2839 8.51684 7
    endloop
  endfacet
  facet normal 0.951056 0.30902 0
    outer loop
      vertex 19.2839 8.51684 3
      vertex 19.4454 8.01978 7
      vertex 19.4454 8.01978 3
    endloop
  endfacet
  facet normal 0.743145 0.669131 0
    outer loop
      vertex 19.0225 8.96946 7
      vertex 18.6728 9.35786 3
      vertex 18.6728 9.35786 7
    endloop
  endfacet
  facet normal 0.743145 0.669131 0
    outer loop
      vertex 18.6728 9.35786 3
      vertex 19.0225 8.96946 7
      vertex 19.0225 8.96946 3
    endloop
  endfacet
  facet normal 0.207913 0.978147 -0
    outer loop
      vertex 17.7725 9.87764 3
      vertex 17.2613 9.9863 7
      vertex 17.7725 9.87764 7
    endloop
  endfacet
  facet normal 0.207913 0.978147 0
    outer loop
      vertex 17.2613 9.9863 7
      vertex 17.7725 9.87764 3
      vertex 17.2613 9.9863 3
    endloop
  endfacet
  facet normal 0.406736 0.913546 -0
    outer loop
      vertex 18.25 9.66506 3
      vertex 17.7725 9.87764 7
      vertex 18.25 9.66506 7
    endloop
  endfacet
  facet normal 0.406736 0.913546 0
    outer loop
      vertex 17.7725 9.87764 7
      vertex 18.25 9.66506 3
      vertex 17.7725 9.87764 3
    endloop
  endfacet
  facet normal -0.951056 0.309018 0
    outer loop
      vertex 14.5546 8.01978 3
      vertex 14.7161 8.51684 7
      vertex 14.7161 8.51684 3
    endloop
  endfacet
  facet normal -0.951056 0.309018 0
    outer loop
      vertex 14.7161 8.51684 7
      vertex 14.5546 8.01978 3
      vertex 14.5546 8.01978 7
    endloop
  endfacet
  facet normal -0.866025 0.5 0
    outer loop
      vertex 14.7161 8.51684 3
      vertex 14.9775 8.96946 7
      vertex 14.9775 8.96946 3
    endloop
  endfacet
  facet normal -0.866025 0.5 0
    outer loop
      vertex 14.9775 8.96946 7
      vertex 14.7161 8.51684 3
      vertex 14.7161 8.51684 7
    endloop
  endfacet
  facet normal -0.994522 0.104527 0
    outer loop
      vertex 14.5 7.5 3
      vertex 14.5546 8.01978 7
      vertex 14.5546 8.01978 3
    endloop
  endfacet
  facet normal -0.994522 0.104527 0
    outer loop
      vertex 14.5546 8.01978 7
      vertex 14.5 7.5 3
      vertex 14.5 7.5 7
    endloop
  endfacet
  facet normal -0.587785 0.809017 0
    outer loop
      vertex 15.75 9.66506 3
      vertex 15.3272 9.35786 7
      vertex 15.75 9.66506 7
    endloop
  endfacet
  facet normal -0.587785 0.809017 0
    outer loop
      vertex 15.3272 9.35786 7
      vertex 15.75 9.66506 3
      vertex 15.3272 9.35786 3
    endloop
  endfacet
  facet normal -0.207912 0.978148 0
    outer loop
      vertex 16.7387 9.9863 3
      vertex 16.2275 9.87764 7
      vertex 16.7387 9.9863 7
    endloop
  endfacet
  facet normal -0.207912 0.978148 0
    outer loop
      vertex 16.2275 9.87764 7
      vertex 16.7387 9.9863 3
      vertex 16.2275 9.87764 3
    endloop
  endfacet
  facet normal 0.994522 -0.104527 0
    outer loop
      vertex 19.4454 6.98022 7
      vertex 19.5 7.5 3
      vertex 19.5 7.5 7
    endloop
  endfacet
  facet normal 0.994522 -0.104527 0
    outer loop
      vertex 19.5 7.5 3
      vertex 19.4454 6.98022 7
      vertex 19.4454 6.98022 3
    endloop
  endfacet
  facet normal 0.207913 -0.978147 0
    outer loop
      vertex 17.2613 5.01369 3
      vertex 17.7725 5.12236 7
      vertex 17.2613 5.01369 7
    endloop
  endfacet
  facet normal 0.207913 -0.978147 0
    outer loop
      vertex 17.7725 5.12236 7
      vertex 17.2613 5.01369 3
      vertex 17.7725 5.12236 3
    endloop
  endfacet
  facet normal 0.587787 -0.809016 0
    outer loop
      vertex 18.25 5.33494 3
      vertex 18.6728 5.64214 7
      vertex 18.25 5.33494 7
    endloop
  endfacet
  facet normal 0.587787 -0.809016 0
    outer loop
      vertex 18.6728 5.64214 7
      vertex 18.25 5.33494 3
      vertex 18.6728 5.64214 3
    endloop
  endfacet
  facet normal -0.406736 -0.913546 0
    outer loop
      vertex 15.75 5.33494 3
      vertex 16.2275 5.12236 7
      vertex 15.75 5.33494 7
    endloop
  endfacet
  facet normal -0.406736 -0.913546 -0
    outer loop
      vertex 16.2275 5.12236 7
      vertex 15.75 5.33494 3
      vertex 16.2275 5.12236 3
    endloop
  endfacet
  facet normal 0 -1 0
    outer loop
      vertex 16.7387 5.01369 3
      vertex 17.2613 5.01369 7
      vertex 16.7387 5.01369 7
    endloop
  endfacet
  facet normal 0 -1 -0
    outer loop
      vertex 17.2613 5.01369 7
      vertex 16.7387 5.01369 3
      vertex 17.2613 5.01369 3
    endloop
  endfacet
  facet normal -0.743145 -0.669131 0
    outer loop
      vertex 15.3272 5.64214 3
      vertex 14.9775 6.03054 7
      vertex 14.9775 6.03054 3
    endloop
  endfacet
  facet normal -0.743145 -0.669131 0
    outer loop
      vertex 14.9775 6.03054 7
      vertex 15.3272 5.64214 3
      vertex 15.3272 5.64214 7
    endloop
  endfacet
  facet normal -0.994522 -0.104527 0
    outer loop
      vertex 14.5546 6.98022 3
      vertex 14.5 7.5 7
      vertex 14.5 7.5 3
    endloop
  endfacet
  facet normal -0.994522 -0.104527 0
    outer loop
      vertex 14.5 7.5 7
      vertex 14.5546 6.98022 3
      vertex 14.5546 6.98022 7
    endloop
  endfacet
  facet normal 0.406736 -0.913546 0
    outer loop
      vertex 17.7725 5.12236 3
      vertex 18.25 5.33494 7
      vertex 17.7725 5.12236 7
    endloop
  endfacet
  facet normal 0.406736 -0.913546 0
    outer loop
      vertex 18.25 5.33494 7
      vertex 17.7725 5.12236 3
      vertex 18.25 5.33494 3
    endloop
  endfacet
  facet normal 0.951056 -0.30902 0
    outer loop
      vertex 19.2839 6.48316 7
      vertex 19.4454 6.98022 3
      vertex 19.4454 6.98022 7
    endloop
  endfacet
  facet normal 0.951056 -0.30902 0
    outer loop
      vertex 19.4454 6.98022 3
      vertex 19.2839 6.48316 7
      vertex 19.2839 6.48316 3
    endloop
  endfacet
  facet normal 0.866025 -0.500001 0
    outer loop
      vertex 19.0225 6.03054 7
      vertex 19.2839 6.48316 3
      vertex 19.2839 6.48316 7
    endloop
  endfacet
  facet normal 0.866025 -0.500001 0
    outer loop
      vertex 19.2839 6.48316 3
      vertex 19.0225 6.03054 7
      vertex 19.0225 6.03054 3
    endloop
  endfacet
  facet normal -0.207912 -0.978148 0
    outer loop
      vertex 16.2275 5.12236 3
      vertex 16.7387 5.01369 7
      vertex 16.2275 5.12236 7
    endloop
  endfacet
  facet normal -0.207912 -0.978148 -0
    outer loop
      vertex 16.7387 5.01369 7
      vertex 16.2275 5.12236 3
      vertex 16.7387 5.01369 3
    endloop
  endfacet
  facet normal -0.587786 -0.809017 0
    outer loop
      vertex 15.3272 5.64214 3
      vertex 15.75 5.33494 7
      vertex 15.3272 5.64214 7
    endloop
  endfacet
  facet normal -0.587786 -0.809017 -0
    outer loop
      vertex 15.75 5.33494 7
      vertex 15.3272 5.64214 3
      vertex 15.75 5.33494 3
    endloop
  endfacet
  facet normal -0.866025 -0.5 0
    outer loop
      vertex 14.9775 6.03054 3
      vertex 14.7161 6.48316 7
      vertex 14.7161 6.48316 3
    endloop
  endfacet
  facet normal -0.866025 -0.5 0
    outer loop
      vertex 14.7161 6.48316 7
      vertex 14.9775 6.03054 3
      vertex 14.9775 6.03054 7
    endloop
  endfacet
  facet normal 1 -0 0
    outer loop
      vertex 2 15 7
      vertex 2 26 3
      vertex 2 26 7
    endloop
  endfacet
  facet normal 1 0 0
    outer loop
      vertex 2 26 3
      vertex 2 15 7
      vertex 2 15 3
    endloop
  endfacet
  facet normal -1 0 0
    outer loop
      vertex 32 15 3
      vertex 32 26 7
      vertex 32 26 3
    endloop
  endfacet
  facet normal -1 -0 0
    outer loop
      vertex 32 26 7
      vertex 32 15 3
      vertex 32 15 7
    endloop
  endfacet
  facet normal 0 0 1
    outer loop
      vertex 32 26 3
      vertex 19.5 20.5 3
      vertex 32 15 3
    endloop
  endfacet
  facet normal 0 0 1
    outer loop
      vertex 32 26 3
      vertex 19.4454 21.0198 3
      vertex 19.5 20.5 3
    endloop
  endfacet
  facet normal 0 0 1
    outer loop
      vertex 32 26 3
      vertex 19.2839 21.5168 3
      vertex 19.4454 21.0198 3
    endloop
  endfacet
  facet normal 0 0 1
    outer loop
      vertex 32 26 3
      vertex 19.0225 21.9695 3
      vertex 19.2839 21.5168 3
    endloop
  endfacet
  facet normal 0 0 1
    outer loop
      vertex 32 26 3
      vertex 18.6728 22.3579 3
      vertex 19.0225 21.9695 3
    endloop
  endfacet
  facet normal 0 0 1
    outer loop
      vertex 32 26 3
      vertex 18.25 22.6651 3
      vertex 18.6728 22.3579 3
    endloop
  endfacet
  facet normal 0 0 1
    outer loop
      vertex 32 26 3
      vertex 17.7725 22.8776 3
      vertex 18.25 22.6651 3
    endloop
  endfacet
  facet normal 0 0 1
    outer loop
      vertex 32 26 3
      vertex 17.2613 22.9863 3
      vertex 17.7725 22.8776 3
    endloop
  endfacet
  facet normal 0 0 1
    outer loop
      vertex 32 26 3
      vertex 16.7387 22.9863 3
      vertex 17.2613 22.9863 3
    endloop
  endfacet
  facet normal 0 0 1
    outer loop
      vertex 14.5546 21.0198 3
      vertex 2 26 3
      vertex 14.5 20.5 3
    endloop
  endfacet
  facet normal 0 0 1
    outer loop
      vertex 14.7161 21.5168 3
      vertex 2 26 3
      vertex 14.5546 21.0198 3
    endloop
  endfacet
  facet normal 0 0 1
    outer loop
      vertex 14.9775 21.9695 3
      vertex 2 26 3
      vertex 14.7161 21.5168 3
    endloop
  endfacet
  facet normal 0 0 1
    outer loop
      vertex 15.3272 22.3579 3
      vertex 2 26 3
      vertex 14.9775 21.9695 3
    endloop
  endfacet
  facet normal 0 0 1
    outer loop
      vertex 15.75 22.6651 3
      vertex 2 26 3
      vertex 15.3272 22.3579 3
    endloop
  endfacet
  facet normal 0 0 1
    outer loop
      vertex 16.2275 22.8776 3
      vertex 2 26 3
      vertex 15.75 22.6651 3
    endloop
  endfacet
  facet normal 0 0 1
    outer loop
      vertex 16.7387 22.9863 3
      vertex 2 26 3
      vertex 16.2275 22.8776 3
    endloop
  endfacet
  facet normal -0 0 1
    outer loop
      vertex 2 26 3
      vertex 16.7387 22.9863 3
      vertex 32 26 3
    endloop
  endfacet
  facet normal -0 0 1
    outer loop
      vertex 19.4454 19.9802 3
      vertex 32 15 3
      vertex 19.5 20.5 3
    endloop
  endfacet
  facet normal -0 0 1
    outer loop
      vertex 19.2839 19.4832 3
      vertex 32 15 3
      vertex 19.4454 19.9802 3
    endloop
  endfacet
  facet normal -0 0 1
    outer loop
      vertex 19.0225 19.0305 3
      vertex 32 15 3
      vertex 19.2839 19.4832 3
    endloop
  endfacet
  facet normal -0 0 1
    outer loop
      vertex 18.6728 18.6421 3
      vertex 32 15 3
      vertex 19.0225 19.0305 3
    endloop
  endfacet
  facet normal -0 0 1
    outer loop
      vertex 18.25 18.3349 3
      vertex 32 15 3
      vertex 18.6728 18.6421 3
    endloop
  endfacet
  facet normal -0 0 1
    outer loop
      vertex 17.7725 18.1224 3
      vertex 32 15 3
      vertex 18.25 18.3349 3
    endloop
  endfacet
  facet normal -0 0 1
    outer loop
      vertex 17.2613 18.0137 3
      vertex 32 15 3
      vertex 17.7725 18.1224 3
    endloop
  endfacet
  facet normal -0 0 1
    outer loop
      vertex 16.7387 18.0137 3
      vertex 32 15 3
      vertex 17.2613 18.0137 3
    endloop
  endfacet
  facet normal 0 0 1
    outer loop
      vertex 2 15 3
      vertex 14.5 20.5 3
      vertex 2 26 3
    endloop
  endfacet
  facet normal 0 0 1
    outer loop
      vertex 14.5 20.5 3
      vertex 2 15 3
      vertex 14.5546 19.9802 3
    endloop
  endfacet
  facet normal 0 0 1
    outer loop
      vertex 14.5546 19.9802 3
      vertex 2 15 3
      vertex 14.7161 19.4832 3
    endloop
  endfacet
  facet normal 0 0 1
    outer loop
      vertex 14.7161 19.4832 3
      vertex 2 15 3
      vertex 14.9775 19.0305 3
    endloop
  endfacet
  facet normal 0 0 1
    outer loop
      vertex 14.9775 19.0305 3
      vertex 2 15 3
      vertex 15.3272 18.6421 3
    endloop
  endfacet
  facet normal 0 0 1
    outer loop
      vertex 16.7387 18.0137 3
      vertex 2 15 3
      vertex 32 15 3
    endloop
  endfacet
  facet normal 0 0 1
    outer loop
      vertex 16.2275 18.1224 3
      vertex 2 15 3
      vertex 16.7387 18.0137 3
    endloop
  endfacet
  facet normal 0 0 1
    outer loop
      vertex 15.75 18.3349 3
      vertex 2 15 3
      vertex 16.2275 18.1224 3
    endloop
  endfacet
  facet normal 0 0 1
    outer loop
      vertex 15.3272 18.6421 3
      vertex 2 15 3
      vertex 15.75 18.3349 3
    endloop
  endfacet
  facet normal 0 1 -0
    outer loop
      vertex 32 15 3
      vertex 2 15 7
      vertex 32 15 7
    endloop
  endfacet
  facet normal 0 1 0
    outer loop
      vertex 2 15 7
      vertex 32 15 3
      vertex 2 15 3
    endloop
  endfacet
  facet normal 0 -1 0
    outer loop
      vertex 2 26 3
      vertex 32 26 7
      vertex 2 26 7
    endloop
  endfacet
  facet normal 0 -1 -0
    outer loop
      vertex 32 26 7
      vertex 2 26 3
      vertex 32 26 3
    endloop
  endfacet
  facet normal 0.994522 0.104527 0
    outer loop
      vertex 19.5 20.5 7
      vertex 19.4454 21.0198 3
      vertex 19.4454 21.0198 7
    endloop
  endfacet
  facet normal 0.994522 0.104527 0
    outer loop
      vertex 19.4454 21.0198 3
      vertex 19.5 20.5 7
      vertex 19.5 20.5 3
    endloop
  endfacet
  facet normal 0 1 -0
    outer loop
      vertex 17.2613 22.9863 3
      vertex 16.7387 22.9863 7
      vertex 17.2613 22.9863 7
    endloop
  endfacet
  facet normal 0 1 0
    outer loop
      vertex 16.7387 22.9863 7
      vertex 17.2613 22.9863 3
      vertex 16.7387 22.9863 3
    endloop
  endfacet
  facet normal 0.587787 0.809016 -0
    outer loop
      vertex 18.6728 22.3579 3
      vertex 18.25 22.6651 7
      vertex 18.6728 22.3579 7
    endloop
  endfacet
  facet normal 0.587787 0.809016 0
    outer loop
      vertex 18.25 22.6651 7
      vertex 18.6728 22.3579 3
      vertex 18.25 22.6651 3
    endloop
  endfacet
  facet normal -0.743143 0.669132 0
    outer loop
      vertex 14.9775 21.9695 3
      vertex 15.3272 22.3579 7
      vertex 15.3272 22.3579 3
    endloop
  endfacet
  facet normal -0.743143 0.669132 0
    outer loop
      vertex 15.3272 22.3579 7
      vertex 14.9775 21.9695 3
      vertex 14.9775 21.9695 7
    endloop
  endfacet
  facet normal -0.406737 0.913545 0
    outer loop
      vertex 16.2275 22.8776 3
      vertex 15.75 22.6651 7
      vertex 16.2275 22.8776 7
    endloop
  endfacet
  facet normal -0.406737 0.913545 0
    outer loop
      vertex 15.75 22.6651 7
      vertex 16.2275 22.8776 3
      vertex 15.75 22.6651 3
    endloop
  endfacet
  facet normal 0.743145 -0.669131 0
    outer loop
      vertex 18.6728 18.6421 7
      vertex 19.0225 19.0305 3
      vertex 19.0225 19.0305 7
    endloop
  endfacet
  facet normal 0.743145 -0.669131 0
    outer loop
      vertex 19.0225 19.0305 3
      vertex 18.6728 18.6421 7
      vertex 18.6728 18.6421 3
    endloop
  endfacet
  facet normal -0.951056 -0.309017 0
    outer loop
      vertex 14.7161 19.4832 3
      vertex 14.5546 19.9802 7
      vertex 14.5546 19.9802 3
    endloop
  endfacet
  facet normal -0.951056 -0.309017 0
    outer loop
      vertex 14.5546 19.9802 7
      vertex 14.7161 19.4832 3
      vertex 14.7161 19.4832 7
    endloop
  endfacet
  facet normal 0.866025 0.500001 0
    outer loop
      vertex 19.2839 21.5168 7
      vertex 19.0225 21.9695 3
      vertex 19.0225 21.9695 7
    endloop
  endfacet
  facet normal 0.866025 0.500001 0
    outer loop
      vertex 19.0225 21.9695 3
      vertex 19.2839 21.5168 7
      vertex 19.2839 21.5168 3
    endloop
  endfacet
  facet normal 0.951056 0.309019 0
    outer loop
      vertex 19.4454 21.0198 7
      vertex 19.2839 21.5168 3
      vertex 19.2839 21.5168 7
    endloop
  endfacet
  facet normal 0.951056 0.309019 0
    outer loop
      vertex 19.2839 21.5168 3
      vertex 19.4454 21.0198 7
      vertex 19.4454 21.0198 3
    endloop
  endfacet
  facet normal 0.743143 0.669132 0
    outer loop
      vertex 19.0225 21.9695 7
      vertex 18.6728 22.3579 3
      vertex 18.6728 22.3579 7
    endloop
  endfacet
  facet normal 0.743143 0.669132 0
    outer loop
      vertex 18.6728 22.3579 3
      vertex 19.0225 21.9695 7
      vertex 19.0225 21.9695 3
    endloop
  endfacet
  facet normal 0.207916 0.978147 -0
    outer loop
      vertex 17.7725 22.8776 3
      vertex 17.2613 22.9863 7
      vertex 17.7725 22.8776 7
    endloop
  endfacet
  facet normal 0.207916 0.978147 0
    outer loop
      vertex 17.2613 22.9863 7
      vertex 17.7725 22.8776 3
      vertex 17.2613 22.9863 3
    endloop
  endfacet
  facet normal 0.406736 0.913546 -0
    outer loop
      vertex 18.25 22.6651 3
      vertex 17.7725 22.8776 7
      vertex 18.25 22.6651 7
    endloop
  endfacet
  facet normal 0.406736 0.913546 0
    outer loop
      vertex 17.7725 22.8776 7
      vertex 18.25 22.6651 3
      vertex 17.7725 22.8776 3
    endloop
  endfacet
  facet normal -0.951056 0.309017 0
    outer loop
      vertex 14.5546 21.0198 3
      vertex 14.7161 21.5168 7
      vertex 14.7161 21.5168 3
    endloop
  endfacet
  facet normal -0.951056 0.309017 0
    outer loop
      vertex 14.7161 21.5168 7
      vertex 14.5546 21.0198 3
      vertex 14.5546 21.0198 7
    endloop
  endfacet
  facet normal -0.866025 0.5 0
    outer loop
      vertex 14.7161 21.5168 3
      vertex 14.9775 21.9695 7
      vertex 14.9775 21.9695 3
    endloop
  endfacet
  facet normal -0.866025 0.5 0
    outer loop
      vertex 14.9775 21.9695 7
      vertex 14.7161 21.5168 3
      vertex 14.7161 21.5168 7
    endloop
  endfacet
  facet normal -0.994522 0.104527 0
    outer loop
      vertex 14.5 20.5 3
      vertex 14.5546 21.0198 7
      vertex 14.5546 21.0198 3
    endloop
  endfacet
  facet normal -0.994522 0.104527 0
    outer loop
      vertex 14.5546 21.0198 7
      vertex 14.5 20.5 3
      vertex 14.5 20.5 7
    endloop
  endfacet
  facet normal -0.587785 0.809017 0
    outer loop
      vertex 15.75 22.6651 3
      vertex 15.3272 22.3579 7
      vertex 15.75 22.6651 7
    endloop
  endfacet
  facet normal -0.587785 0.809017 0
    outer loop
      vertex 15.3272 22.3579 7
      vertex 15.75 22.6651 3
      vertex 15.3272 22.3579 3
    endloop
  endfacet
  facet normal -0.207916 0.978147 0
    outer loop
      vertex 16.7387 22.9863 3
      vertex 16.2275 22.8776 7
      vertex 16.7387 22.9863 7
    endloop
  endfacet
  facet normal -0.207916 0.978147 0
    outer loop
      vertex 16.2275 22.8776 7
      vertex 16.7387 22.9863 3
      vertex 16.2275 22.8776 3
    endloop
  endfacet
  facet normal 0.994522 -0.104527 0
    outer loop
      vertex 19.4454 19.9802 7
      vertex 19.5 20.5 3
      vertex 19.5 20.5 7
    endloop
  endfacet
  facet normal 0.994522 -0.104527 0
    outer loop
      vertex 19.5 20.5 3
      vertex 19.4454 19.9802 7
      vertex 19.4454 19.9802 3
    endloop
  endfacet
  facet normal 0.207913 -0.978147 0
    outer loop
      vertex 17.2613 18.0137 3
      vertex 17.7725 18.1224 7
      vertex 17.2613 18.0137 7
    endloop
  endfacet
  facet normal 0.207913 -0.978147 0
    outer loop
      vertex 17.7725 18.1224 7
      vertex 17.2613 18.0137 3
      vertex 17.7725 18.1224 3
    endloop
  endfacet
  facet normal 0.587787 -0.809016 0
    outer loop
      vertex 18.25 18.3349 3
      vertex 18.6728 18.6421 7
      vertex 18.25 18.3349 7
    endloop
  endfacet
  facet normal 0.587787 -0.809016 0
    outer loop
      vertex 18.6728 18.6421 7
      vertex 18.25 18.3349 3
      vertex 18.6728 18.6421 3
    endloop
  endfacet
  facet normal -0.406736 -0.913546 0
    outer loop
      vertex 15.75 18.3349 3
      vertex 16.2275 18.1224 7
      vertex 15.75 18.3349 7
    endloop
  endfacet
  facet normal -0.406736 -0.913546 -0
    outer loop
      vertex 16.2275 18.1224 7
      vertex 15.75 18.3349 3
      vertex 16.2275 18.1224 3
    endloop
  endfacet
  facet normal 0 -1 0
    outer loop
      vertex 16.7387 18.0137 3
      vertex 17.2613 18.0137 7
      vertex 16.7387 18.0137 7
    endloop
  endfacet
  facet normal 0 -1 -0
    outer loop
      vertex 17.2613 18.0137 7
      vertex 16.7387 18.0137 3
      vertex 17.2613 18.0137 3
    endloop
  endfacet
  facet normal -0.743145 -0.669131 0
    outer loop
      vertex 15.3272 18.6421 3
      vertex 14.9775 19.0305 7
      vertex 14.9775 19.0305 3
    endloop
  endfacet
  facet normal -0.743145 -0.669131 0
    outer loop
      vertex 14.9775 19.0305 7
      vertex 15.3272 18.6421 3
      vertex 15.3272 18.6421 7
    endloop
  endfacet
  facet normal -0.994522 -0.104527 0
    outer loop
      vertex 14.5546 19.9802 3
      vertex 14.5 20.5 7
      vertex 14.5 20.5 3
    endloop
  endfacet
  facet normal -0.994522 -0.104527 0
    outer loop
      vertex 14.5 20.5 7
      vertex 14.5546 19.9802 3
      vertex 14.5546 19.9802 7
    endloop
  endfacet
  facet normal 0.406736 -0.913546 0
    outer loop
      vertex 17.7725 18.1224 3
      vertex 18.25 18.3349 7
      vertex 17.7725 18.1224 7
    endloop
  endfacet
  facet normal 0.406736 -0.913546 0
    outer loop
      vertex 18.25 18.3349 7
      vertex 17.7725 18.1224 3
      vertex 18.25 18.3349 3
    endloop
  endfacet
  facet normal 0.951056 -0.309019 0
    outer loop
      vertex 19.2839 19.4832 7
      vertex 19.4454 19.9802 3
      vertex 19.4454 19.9802 7
    endloop
  endfacet
  facet normal 0.951056 -0.309019 0
    outer loop
      vertex 19.4454 19.9802 3
      vertex 19.2839 19.4832 7
      vertex 19.2839 19.4832 3
    endloop
  endfacet
  facet normal 0.866025 -0.500001 0
    outer loop
      vertex 19.0225 19.0305 7
      vertex 19.2839 19.4832 3
      vertex 19.2839 19.4832 7
    endloop
  endfacet
  facet normal 0.866025 -0.500001 0
    outer loop
      vertex 19.2839 19.4832 3
      vertex 19.0225 19.0305 7
      vertex 19.0225 19.0305 3
    endloop
  endfacet
  facet normal -0.207912 -0.978148 0
    outer loop
      vertex 16.2275 18.1224 3
      vertex 16.7387 18.0137 7
      vertex 16.2275 18.1224 7
    endloop
  endfacet
  facet normal -0.207912 -0.978148 -0
    outer loop
      vertex 16.7387 18.0137 7
      vertex 16.2275 18.1224 3
      vertex 16.7387 18.0137 3
    endloop
  endfacet
  facet normal -0.587786 -0.809017 0
    outer loop
      vertex 15.3272 18.6421 3
      vertex 15.75 18.3349 7
      vertex 15.3272 18.6421 7
    endloop
  endfacet
  facet normal -0.587786 -0.809017 -0
    outer loop
      vertex 15.75 18.3349 7
      vertex 15.3272 18.6421 3
      vertex 15.75 18.3349 3
    endloop
  endfacet
  facet normal -0.866025 -0.5 0
    outer loop
      vertex 14.9775 19.0305 3
      vertex 14.7161 19.4832 7
      vertex 14.7161 19.4832 3
    endloop
  endfacet
  facet normal -0.866025 -0.5 0
    outer loop
      vertex 14.7161 19.4832 7
      vertex 14.9775 19.0305 3
      vertex 14.9775 19.0305 7
    endloop
  endfacet
  facet normal -1 0 0
    outer loop
      vertex 0 0 0
      vertex 0 28 7
      vertex 0 28 0
    endloop
  endfacet
  facet normal -1 -0 0
    outer loop
      vertex 0 28 7
      vertex 0 0 0
      vertex 0 0 7
    endloop
  endfacet
  facet normal 1 -0 0
    outer loop
      vertex 34 0 7
      vertex 34 28 0
      vertex 34 28 7
    endloop
  endfacet
  facet normal 1 0 0
    outer loop
      vertex 34 28 0
      vertex 34 0 7
      vertex 34 0 0
    endloop
  endfacet
  facet normal 0 1 -0
    outer loop
      vertex 34 28 0
      vertex 0 28 7
      vertex 34 28 7
    endloop
  endfacet
  facet normal 0 1 0
    outer loop
      vertex 0 28 7
      vertex 34 28 0
      vertex 0 28 0
    endloop
  endfacet
  facet normal 0 0 -1
    outer loop
      vertex 0 0 0
      vertex 34 28 0
      vertex 34 0 0
    endloop
  endfacet
  facet normal -0 0 -1
    outer loop
      vertex 34 28 0
      vertex 0 0 0
      vertex 0 28 0
    endloop
  endfacet
  facet normal 0 -1 0
    outer loop
      vertex 0 0 0
      vertex 34 0 7
      vertex 0 0 7
    endloop
  endfacet
  facet normal 0 -1 -0
    outer loop
      vertex 34 0 7
      vertex 0 0 0
      vertex 34 0 0
    endloop
  endfacet
endsolid OpenSCAD_Model
